G04 #@! TF.GenerationSoftware,KiCad,Pcbnew,5.0.0-rc1-44a33f2~62~ubuntu16.04.1*
G04 #@! TF.CreationDate,2018-04-01T18:34:43+03:00*
G04 #@! TF.ProjectId,BeagleBone-Black-Cape,426561676C65426F6E652D426C61636B,rev?*
G04 #@! TF.SameCoordinates,Original*
G04 #@! TF.FileFunction,Copper,L1,Top,Signal*
G04 #@! TF.FilePolarity,Positive*
%FSLAX46Y46*%
G04 Gerber Fmt 4.6, Leading zero omitted, Abs format (unit mm)*
G04 Created by KiCad (PCBNEW 5.0.0-rc1-44a33f2~62~ubuntu16.04.1) date Sun Apr  1 18:34:43 2018*
%MOMM*%
%LPD*%
G01*
G04 APERTURE LIST*
%ADD10R,1.727200X1.727200*%
%ADD11O,1.727200X1.727200*%
%ADD12R,1.800000X1.245000*%
%ADD13R,1.500000X1.145000*%
%ADD14R,1.700000X1.700000*%
%ADD15O,1.700000X1.700000*%
%ADD16R,1.800000X3.600000*%
%ADD17O,1.800000X3.600000*%
%ADD18R,1.800000X1.800000*%
%ADD19C,1.800000*%
%ADD20R,0.800000X0.900000*%
%ADD21R,1.145000X1.500000*%
%ADD22R,1.550000X0.600000*%
%ADD23R,0.812800X2.181860*%
%ADD24R,2.181860X0.812800*%
%ADD25C,0.600000*%
%ADD26C,1.000000*%
%ADD27C,0.250000*%
%ADD28C,0.500000*%
%ADD29C,0.254000*%
G04 APERTURE END LIST*
D10*
X164630100Y-62382400D03*
D11*
X167170100Y-62382400D03*
X164630100Y-64922400D03*
X167170100Y-64922400D03*
X164630100Y-67462400D03*
X167170100Y-67462400D03*
X164630100Y-70002400D03*
X167170100Y-70002400D03*
X164630100Y-72542400D03*
X167170100Y-72542400D03*
X164630100Y-75082400D03*
X167170100Y-75082400D03*
X164630100Y-77622400D03*
X167170100Y-77622400D03*
X164630100Y-80162400D03*
X167170100Y-80162400D03*
X164630100Y-82702400D03*
X167170100Y-82702400D03*
X164630100Y-85242400D03*
X167170100Y-85242400D03*
X164630100Y-87782400D03*
X167170100Y-87782400D03*
X164630100Y-90322400D03*
X167170100Y-90322400D03*
X164630100Y-92862400D03*
X167170100Y-92862400D03*
X164630100Y-95402400D03*
X167170100Y-95402400D03*
X164630100Y-97942400D03*
X167170100Y-97942400D03*
X164630100Y-100482400D03*
X167170100Y-100482400D03*
X164630100Y-103022400D03*
X167170100Y-103022400D03*
X164630100Y-105562400D03*
X167170100Y-105562400D03*
X164630100Y-108102400D03*
X167170100Y-108102400D03*
X164630100Y-110642400D03*
X167170100Y-110642400D03*
X164630100Y-113182400D03*
X167170100Y-113182400D03*
X164630100Y-115722400D03*
X167170100Y-115722400D03*
X164630100Y-118262400D03*
X167170100Y-118262400D03*
D10*
X116370100Y-62382400D03*
D11*
X118910100Y-62382400D03*
X116370100Y-64922400D03*
X118910100Y-64922400D03*
X116370100Y-67462400D03*
X118910100Y-67462400D03*
X116370100Y-70002400D03*
X118910100Y-70002400D03*
X116370100Y-72542400D03*
X118910100Y-72542400D03*
X116370100Y-75082400D03*
X118910100Y-75082400D03*
X116370100Y-77622400D03*
X118910100Y-77622400D03*
X116370100Y-80162400D03*
X118910100Y-80162400D03*
X116370100Y-82702400D03*
X118910100Y-82702400D03*
X116370100Y-85242400D03*
X118910100Y-85242400D03*
X116370100Y-87782400D03*
X118910100Y-87782400D03*
X116370100Y-90322400D03*
X118910100Y-90322400D03*
X116370100Y-92862400D03*
X118910100Y-92862400D03*
X116370100Y-95402400D03*
X118910100Y-95402400D03*
X116370100Y-97942400D03*
X118910100Y-97942400D03*
X116370100Y-100482400D03*
X118910100Y-100482400D03*
X116370100Y-103022400D03*
X118910100Y-103022400D03*
X116370100Y-105562400D03*
X118910100Y-105562400D03*
X116370100Y-108102400D03*
X118910100Y-108102400D03*
X116370100Y-110642400D03*
X118910100Y-110642400D03*
X116370100Y-113182400D03*
X118910100Y-113182400D03*
X116370100Y-115722400D03*
X118910100Y-115722400D03*
X116370100Y-118262400D03*
X118910100Y-118262400D03*
D12*
X159550100Y-89999900D03*
X159550100Y-93184900D03*
D13*
X134150100Y-121029900D03*
X134150100Y-123114900D03*
D14*
X155740100Y-110642400D03*
D15*
X155740100Y-113182400D03*
X153200100Y-110642400D03*
X153200100Y-113182400D03*
X150660100Y-110642400D03*
X150660100Y-113182400D03*
X148120100Y-110642400D03*
X148120100Y-113182400D03*
X145580100Y-110642400D03*
X145580100Y-113182400D03*
X143040100Y-110642400D03*
X143040100Y-113182400D03*
X140500100Y-110642400D03*
X140500100Y-113182400D03*
D16*
X143040100Y-122072400D03*
D17*
X148120100Y-122072400D03*
X153200100Y-122072400D03*
X158280100Y-122072400D03*
D14*
X167170100Y-54762400D03*
D15*
X164630100Y-54762400D03*
D14*
X134150100Y-110642400D03*
D15*
X131610100Y-110642400D03*
X129070100Y-110642400D03*
X126530100Y-110642400D03*
D18*
X155740100Y-90322400D03*
D19*
X155740100Y-92862400D03*
X155740100Y-95402400D03*
X155740100Y-97942400D03*
X155740100Y-100482400D03*
X155740100Y-103022400D03*
D20*
X125580100Y-50682400D03*
X127480100Y-50682400D03*
X126530100Y-48682400D03*
D21*
X125487600Y-53492400D03*
X127572600Y-53492400D03*
X126757600Y-59842400D03*
X128842600Y-59842400D03*
X131837600Y-59842400D03*
X133922600Y-59842400D03*
D13*
X122720100Y-50724900D03*
X122720100Y-48639900D03*
D21*
X154697600Y-116992400D03*
X156782600Y-116992400D03*
D22*
X125100100Y-120167400D03*
X125100100Y-121437400D03*
X125100100Y-122707400D03*
X125100100Y-123977400D03*
X130500100Y-123977400D03*
X130500100Y-122707400D03*
X130500100Y-121437400D03*
X130500100Y-120167400D03*
D23*
X141770100Y-85242400D03*
X143040100Y-85242400D03*
X144310100Y-85242400D03*
X145580100Y-85242400D03*
X146850100Y-85242400D03*
X148120100Y-85242400D03*
X149390100Y-85242400D03*
X150660100Y-85242400D03*
X151930100Y-85242400D03*
X153200100Y-85242400D03*
X154470100Y-85242400D03*
X155740100Y-85242400D03*
X157010100Y-85242400D03*
D24*
X158915100Y-81432400D03*
X158915100Y-80162400D03*
X158915100Y-78892400D03*
X158915100Y-77622400D03*
X158915100Y-76352400D03*
X158915100Y-75082400D03*
X158915100Y-73812400D03*
X158915100Y-72542400D03*
X158915100Y-71272400D03*
X158915100Y-70002400D03*
D23*
X157010100Y-66192400D03*
X155740100Y-66192400D03*
X154470100Y-66192400D03*
X153200100Y-66192400D03*
X151930100Y-66192400D03*
X150660100Y-66192400D03*
X149390100Y-66192400D03*
X148120100Y-66192400D03*
X146850100Y-66192400D03*
X145580100Y-66192400D03*
X144310100Y-66192400D03*
X143040100Y-66192400D03*
X141770100Y-66192400D03*
D25*
X161455100Y-115087400D03*
X161455100Y-113817400D03*
X161455100Y-112547400D03*
X161455100Y-111277400D03*
X161455100Y-110007400D03*
X160185100Y-126517400D03*
X122720100Y-125247400D03*
X123990100Y-125247400D03*
X123990100Y-126517400D03*
X125260100Y-125247400D03*
X125260100Y-126517400D03*
X125260100Y-127787400D03*
X126530100Y-127787400D03*
X126530100Y-126517400D03*
X126530100Y-125247400D03*
X161455100Y-125247400D03*
X160185100Y-125247400D03*
X160185100Y-123977400D03*
X161455100Y-123977400D03*
X150660100Y-125247400D03*
X149390100Y-125247400D03*
X150660100Y-123977400D03*
X150660100Y-122707400D03*
X150660100Y-121437400D03*
X146850100Y-125247400D03*
X144310100Y-125247400D03*
X145580100Y-125247400D03*
X145580100Y-123977400D03*
X145580100Y-122707400D03*
X145580100Y-121437400D03*
X139865100Y-125247400D03*
X139865100Y-123977400D03*
X139865100Y-122707400D03*
X139865100Y-121437400D03*
X138595100Y-125247400D03*
X138595100Y-123977400D03*
X138595100Y-122707400D03*
X138595100Y-121437400D03*
X138595100Y-120167400D03*
X137325100Y-120167400D03*
X137325100Y-121437400D03*
X137325100Y-122707400D03*
X137325100Y-123977400D03*
X137325100Y-125247400D03*
X136055100Y-125247400D03*
X136055100Y-123977400D03*
X136055100Y-122707400D03*
X136055100Y-121437400D03*
X136055100Y-120167400D03*
X127800100Y-119532400D03*
X161455100Y-118262400D03*
X160185100Y-118262400D03*
X158915100Y-118262400D03*
X158915100Y-116992400D03*
X160185100Y-116992400D03*
X161455100Y-116992400D03*
X151930100Y-118262400D03*
X150660100Y-118262400D03*
X149390100Y-118262400D03*
X148120100Y-118262400D03*
X146850100Y-118262400D03*
X145580100Y-118262400D03*
X144310100Y-118262400D03*
X143040100Y-118262400D03*
X151930100Y-116992400D03*
X150660100Y-116992400D03*
X149390100Y-116992400D03*
X148120100Y-116992400D03*
X146850100Y-116992400D03*
X145580100Y-116992400D03*
X144310100Y-116992400D03*
X143040100Y-116992400D03*
X141770100Y-116992400D03*
X160185100Y-103657400D03*
X160185100Y-104927400D03*
X160185100Y-106197400D03*
X160185100Y-107467400D03*
X160185100Y-108737400D03*
X161455100Y-108737400D03*
X161455100Y-107467400D03*
X161455100Y-106197400D03*
X161455100Y-104927400D03*
X161455100Y-103657400D03*
X132880100Y-93497400D03*
X131610100Y-92227400D03*
X132880100Y-92227400D03*
X132880100Y-90957400D03*
X132880100Y-89687400D03*
X132880100Y-88417400D03*
X132880100Y-87147400D03*
X132880100Y-85877400D03*
X130340100Y-90957400D03*
X131610100Y-90957400D03*
X131610100Y-89687400D03*
X131610100Y-88417400D03*
X131610100Y-87147400D03*
X131610100Y-85877400D03*
X131610100Y-84607400D03*
X141770100Y-108102400D03*
X141770100Y-106832400D03*
X139230100Y-106832400D03*
X139230100Y-108102400D03*
X140500100Y-108102400D03*
X140500100Y-106832400D03*
X140500100Y-105562400D03*
X139230100Y-105562400D03*
X139230100Y-114452400D03*
X139230100Y-115722400D03*
X140500100Y-116357400D03*
X140500100Y-115087400D03*
X136055100Y-116992400D03*
X136055100Y-115722400D03*
X130340100Y-116992400D03*
X129070100Y-116992400D03*
X127800100Y-116992400D03*
X127800100Y-118262400D03*
X129070100Y-118262400D03*
X130340100Y-118262400D03*
X131610100Y-118262400D03*
X131610100Y-116992400D03*
X131610100Y-115722400D03*
X130340100Y-115722400D03*
X129070100Y-115722400D03*
X127800100Y-115722400D03*
X130340100Y-97307400D03*
X130340100Y-96037400D03*
X129070100Y-94767400D03*
X128435100Y-94132400D03*
X129705100Y-95402400D03*
X120815100Y-123977400D03*
X120815100Y-122707400D03*
X119545100Y-122707400D03*
X119545100Y-121437400D03*
X118275100Y-121437400D03*
X117005100Y-120167400D03*
X118275100Y-120167400D03*
X119545100Y-120167400D03*
X120815100Y-121437400D03*
X120815100Y-120167400D03*
X120815100Y-118897400D03*
X120815100Y-117627400D03*
X120815100Y-116357400D03*
X120815100Y-115087400D03*
X120815100Y-113817400D03*
X120815100Y-112547400D03*
X120815100Y-111277400D03*
X120815100Y-110007400D03*
X123355100Y-108737400D03*
X122085100Y-108737400D03*
X123355100Y-98577400D03*
X122085100Y-98577400D03*
X120815100Y-98577400D03*
X120815100Y-108737400D03*
X120815100Y-107467400D03*
X120815100Y-106197400D03*
X120815100Y-104927400D03*
X120815100Y-103657400D03*
X120815100Y-102387400D03*
X120815100Y-101117400D03*
X120815100Y-99847400D03*
X125260100Y-99847400D03*
X125260100Y-101117400D03*
X125260100Y-108737400D03*
X125260100Y-107467400D03*
X125260100Y-106197400D03*
X125260100Y-104927400D03*
X125260100Y-103657400D03*
X125260100Y-102387400D03*
X127800100Y-102387400D03*
X127800100Y-103657400D03*
X127800100Y-104927400D03*
X127800100Y-106197400D03*
X127800100Y-107467400D03*
X127800100Y-108737400D03*
X131610100Y-106197400D03*
X130340100Y-104927400D03*
X130340100Y-106197400D03*
X130340100Y-107467400D03*
X131610100Y-107467400D03*
X132880100Y-107467400D03*
X132880100Y-108737400D03*
X131610100Y-108737400D03*
X130340100Y-108737400D03*
X130340100Y-83337400D03*
X130340100Y-84607400D03*
X130340100Y-85877400D03*
X130340100Y-87147400D03*
X130340100Y-88417400D03*
X130340100Y-89687400D03*
X129070100Y-89687400D03*
X129070100Y-88417400D03*
X129070100Y-87147400D03*
X129070100Y-85877400D03*
X129070100Y-84607400D03*
X129070100Y-83337400D03*
X148120100Y-68732400D03*
X149390100Y-68732400D03*
X150660100Y-68732400D03*
X151930100Y-68732400D03*
X153200100Y-68732400D03*
X154470100Y-68732400D03*
X155740100Y-68732400D03*
X118275100Y-58572400D03*
X118275100Y-56032400D03*
X118275100Y-53492400D03*
X118275100Y-50952400D03*
X118275100Y-48412400D03*
X118275100Y-45872400D03*
X119545100Y-47142400D03*
X122085100Y-47142400D03*
X124625100Y-47142400D03*
X127165100Y-47142400D03*
X129705100Y-47142400D03*
X132245100Y-47142400D03*
X133515100Y-45872400D03*
X132245100Y-44602400D03*
X129705100Y-44602400D03*
X127165100Y-44602400D03*
X124625100Y-44602400D03*
X122085100Y-44602400D03*
X119545100Y-44602400D03*
X166535100Y-120167400D03*
X166535100Y-121437400D03*
X165265100Y-122707400D03*
X165265100Y-121437400D03*
X165265100Y-120167400D03*
X163995100Y-120167400D03*
X163995100Y-121437400D03*
X163995100Y-122707400D03*
X163995100Y-123977400D03*
X162725100Y-125247400D03*
X162725100Y-123977400D03*
X162725100Y-122707400D03*
X162725100Y-121437400D03*
X162725100Y-120167400D03*
X162725100Y-118897400D03*
X162725100Y-117627400D03*
X162725100Y-116357400D03*
X162725100Y-115087400D03*
X162725100Y-113817400D03*
X162725100Y-112547400D03*
X162725100Y-111277400D03*
X162725100Y-110007400D03*
X162725100Y-108737400D03*
X162725100Y-107467400D03*
X162725100Y-106197400D03*
X162725100Y-104927400D03*
X162725100Y-103657400D03*
X162725100Y-102387400D03*
X162725100Y-101117400D03*
X162725100Y-99847400D03*
X162725100Y-98577400D03*
X162725100Y-97307400D03*
X162725100Y-96037400D03*
X162725100Y-94767400D03*
X162725100Y-93497400D03*
X162725100Y-92227400D03*
X162725100Y-90957400D03*
X162725100Y-89687400D03*
X162725100Y-88417400D03*
X162725100Y-87147400D03*
X162725100Y-85877400D03*
X162725100Y-84607400D03*
X162725100Y-83337400D03*
X162725100Y-82067400D03*
X162725100Y-80797400D03*
X162725100Y-79527400D03*
X162725100Y-78257400D03*
X162725100Y-76987400D03*
X162725100Y-75717400D03*
X153835100Y-87782400D03*
X155105100Y-87782400D03*
X156375100Y-87782400D03*
X157645100Y-87782400D03*
X158280100Y-87147400D03*
X158280100Y-88417400D03*
X137960100Y-65557400D03*
X138595100Y-66192400D03*
X139230100Y-66827400D03*
X139865100Y-67462400D03*
X140500100Y-68097400D03*
X141135100Y-68732400D03*
X149390100Y-105562400D03*
X149390100Y-104292400D03*
X149390100Y-103022400D03*
X149390100Y-101752400D03*
X149390100Y-100482400D03*
X144310100Y-94132400D03*
X144310100Y-92862400D03*
X144310100Y-91592400D03*
X143040100Y-92862400D03*
X143040100Y-91592400D03*
X143040100Y-89052400D03*
X141770100Y-89052400D03*
X141770100Y-90322400D03*
X143040100Y-90322400D03*
X144310100Y-90322400D03*
X144310100Y-89052400D03*
X144310100Y-87782400D03*
X143040100Y-87782400D03*
X141770100Y-87782400D03*
X148755100Y-74447400D03*
X147485100Y-75717400D03*
X147485100Y-76987400D03*
X147485100Y-78257400D03*
X147485100Y-79527400D03*
X148755100Y-80797400D03*
X150025100Y-82067400D03*
X151295100Y-82067400D03*
X152565100Y-82067400D03*
X153835100Y-82067400D03*
X153835100Y-80797400D03*
X153835100Y-79527400D03*
X153835100Y-78257400D03*
X153835100Y-76987400D03*
X153835100Y-75717400D03*
X153835100Y-74447400D03*
X153835100Y-73177400D03*
X152565100Y-73177400D03*
X151295100Y-73177400D03*
X162725100Y-74447400D03*
X162725100Y-73177400D03*
X162725100Y-71907400D03*
X162725100Y-70637400D03*
X162725100Y-69367400D03*
X161455100Y-64287400D03*
X161455100Y-65557400D03*
X161455100Y-66827400D03*
X161455100Y-68097400D03*
X160185100Y-68097400D03*
X160185100Y-66827400D03*
X160185100Y-65557400D03*
X160185100Y-64287400D03*
X162725100Y-61747400D03*
X162725100Y-63017400D03*
X161455100Y-63017400D03*
X160185100Y-63017400D03*
X158915100Y-63017400D03*
X157645100Y-63017400D03*
X157645100Y-60477400D03*
X158915100Y-60477400D03*
X160185100Y-60477400D03*
X161455100Y-60477400D03*
X162725100Y-60477400D03*
X163995100Y-60477400D03*
X165265100Y-60477400D03*
X166535100Y-60477400D03*
X167805100Y-60477400D03*
X167805100Y-59207400D03*
X167805100Y-57937400D03*
X167805100Y-56667400D03*
X166535100Y-56667400D03*
X165265100Y-56667400D03*
X163995100Y-56667400D03*
X162725100Y-56667400D03*
X161455100Y-56667400D03*
X160185100Y-56667400D03*
X158915100Y-56667400D03*
X157645100Y-56667400D03*
X156375100Y-63017400D03*
X156375100Y-61747400D03*
X156375100Y-60477400D03*
X156375100Y-59207400D03*
X156375100Y-57937400D03*
X156375100Y-56667400D03*
X167805100Y-51587400D03*
X166535100Y-51587400D03*
X165265100Y-51587400D03*
X163995100Y-51587400D03*
X162725100Y-51587400D03*
X161455100Y-51587400D03*
X160185100Y-51587400D03*
X158915100Y-51587400D03*
X157645100Y-51587400D03*
X156375100Y-51587400D03*
X155105100Y-51587400D03*
X150025100Y-73177400D03*
X124625100Y-60477400D03*
X125260100Y-61747400D03*
X123990100Y-63017400D03*
X123990100Y-61747400D03*
X129070100Y-63017400D03*
X132880100Y-63017400D03*
X131610100Y-63017400D03*
X130340100Y-63017400D03*
X130340100Y-61747400D03*
X131610100Y-61747400D03*
X132880100Y-61747400D03*
X118275100Y-59842400D03*
X118275100Y-57302400D03*
X118275100Y-54762400D03*
X118275100Y-52222400D03*
X130975100Y-50952400D03*
X130975100Y-52222400D03*
X130975100Y-53492400D03*
X130975100Y-54762400D03*
X130975100Y-56032400D03*
X130975100Y-57302400D03*
X129705100Y-57302400D03*
X129705100Y-56032400D03*
X129705100Y-54762400D03*
X129705100Y-53492400D03*
X129705100Y-52222400D03*
X129705100Y-50952400D03*
X120815100Y-47142400D03*
X123355100Y-47142400D03*
X125895100Y-47142400D03*
X128435100Y-47142400D03*
X130975100Y-47142400D03*
X133515100Y-47142400D03*
X118275100Y-49682400D03*
X118275100Y-47142400D03*
X118275100Y-44602400D03*
X120815100Y-44602400D03*
X123355100Y-44602400D03*
X125895100Y-44602400D03*
X128435100Y-44602400D03*
X130975100Y-44602400D03*
X133515100Y-44602400D03*
D26*
X125260100Y-88417400D03*
X127800100Y-64922400D03*
X125260100Y-87147400D03*
X126530100Y-64922400D03*
X134150100Y-116992400D03*
X134150100Y-118516400D03*
X123355100Y-53492400D03*
X142786100Y-82321400D03*
X141770100Y-83337400D03*
X134150100Y-84099400D03*
X134150100Y-76352400D03*
X134150100Y-78003400D03*
X134150100Y-82448400D03*
X132880100Y-81178400D03*
X126784100Y-71272400D03*
X131483100Y-81178400D03*
X125641100Y-70129400D03*
D25*
X145580100Y-82702400D03*
X152565100Y-89052400D03*
X152565100Y-107467400D03*
X146850100Y-87782400D03*
X149390100Y-97307400D03*
X140500100Y-99847400D03*
X149390100Y-107467400D03*
X136690100Y-101117400D03*
X142405100Y-103022400D03*
X141135100Y-78257400D03*
X143675100Y-76987400D03*
X132880100Y-56032400D03*
X134150100Y-56032400D03*
X125260100Y-73812400D03*
X117640100Y-91592400D03*
X125514100Y-98196400D03*
X127546100Y-100228400D03*
X128054100Y-97180400D03*
D27*
X130500100Y-123977400D02*
X133287600Y-123977400D01*
X133287600Y-123977400D02*
X134150100Y-123114900D01*
X155740100Y-92862400D02*
X159227600Y-92862400D01*
X159227600Y-92862400D02*
X159550100Y-93184900D01*
D28*
X125260100Y-87147400D02*
X125260100Y-88417400D01*
X126530100Y-64922400D02*
X127800100Y-64922400D01*
X125260100Y-87147400D02*
X123355100Y-85242400D01*
X123355100Y-85242400D02*
X123355100Y-68097400D01*
X123355100Y-68097400D02*
X126530100Y-64922400D01*
D27*
X143040100Y-110642400D02*
X142786100Y-110642400D01*
X142786100Y-110642400D02*
X141770100Y-111658400D01*
X141770100Y-111658400D02*
X141770100Y-117119400D01*
X141770100Y-117119400D02*
X140373100Y-118516400D01*
X140373100Y-118516400D02*
X134150100Y-118516400D01*
D28*
X134150100Y-118516400D02*
X134150100Y-116992400D01*
X134150100Y-118516400D02*
X134150100Y-121029900D01*
X123355100Y-53492400D02*
X125487600Y-53492400D01*
X141770100Y-83337400D02*
X142786100Y-82321400D01*
X141770100Y-85242400D02*
X141770100Y-83337400D01*
D27*
X130500100Y-120167400D02*
X133287600Y-120167400D01*
X133287600Y-120167400D02*
X134150100Y-121029900D01*
X125580100Y-50682400D02*
X125580100Y-53399900D01*
X125580100Y-53399900D02*
X125487600Y-53492400D01*
D28*
X134150100Y-82448400D02*
X134150100Y-84099400D01*
X134150100Y-78003400D02*
X134150100Y-76352400D01*
X134150100Y-78003400D02*
X134150100Y-82448400D01*
X131483100Y-81178400D02*
X132880100Y-81178400D01*
X131483100Y-81178400D02*
X128435100Y-78130400D01*
X128435100Y-78130400D02*
X128435100Y-72923400D01*
X128435100Y-72923400D02*
X126784100Y-71272400D01*
X126784100Y-71272400D02*
X125641100Y-70129400D01*
X118910100Y-70002400D02*
X119418100Y-70002400D01*
X119418100Y-70002400D02*
X120815100Y-68605400D01*
X120815100Y-68605400D02*
X120815100Y-52629900D01*
X120815100Y-52629900D02*
X122720100Y-50724900D01*
D27*
X155740100Y-90322400D02*
X159227600Y-90322400D01*
X159227600Y-90322400D02*
X159550100Y-89999900D01*
X155740100Y-110642400D02*
X155740100Y-108102400D01*
X144310100Y-83972400D02*
X144310100Y-85242400D01*
X145580100Y-82702400D02*
X144310100Y-83972400D01*
X153835100Y-90322400D02*
X152565100Y-89052400D01*
X153835100Y-106197400D02*
X153835100Y-90322400D01*
X155740100Y-108102400D02*
X153835100Y-106197400D01*
X149390100Y-85242400D02*
X149390100Y-89687400D01*
X152565100Y-92862400D02*
X152565100Y-107467400D01*
X149390100Y-89687400D02*
X152565100Y-92862400D01*
X153200100Y-110642400D02*
X153200100Y-109372400D01*
X145580100Y-91592400D02*
X145580100Y-85242400D01*
X151295100Y-97307400D02*
X145580100Y-91592400D01*
X151295100Y-107467400D02*
X151295100Y-97307400D01*
X153200100Y-109372400D02*
X151295100Y-107467400D01*
X150660100Y-85242400D02*
X150660100Y-89687400D01*
X154470100Y-111912400D02*
X153200100Y-113182400D01*
X154470100Y-108102400D02*
X154470100Y-111912400D01*
X153200100Y-106832400D02*
X154470100Y-108102400D01*
X153200100Y-92227400D02*
X153200100Y-106832400D01*
X150660100Y-89687400D02*
X153200100Y-92227400D01*
X150660100Y-110642400D02*
X150660100Y-98577400D01*
X146850100Y-87782400D02*
X146850100Y-85242400D01*
X150660100Y-98577400D02*
X149390100Y-97307400D01*
X150660100Y-113182400D02*
X149390100Y-111912400D01*
X146850100Y-70637400D02*
X139230100Y-78257400D01*
X139230100Y-78257400D02*
X139230100Y-98577400D01*
X146850100Y-70637400D02*
X146850100Y-66192400D01*
X140500100Y-99847400D02*
X139230100Y-98577400D01*
X149390100Y-111912400D02*
X149390100Y-107467400D01*
X148120100Y-110642400D02*
X148120100Y-100482400D01*
X148120100Y-82702400D02*
X148120100Y-85242400D01*
X146850100Y-81432400D02*
X148120100Y-82702400D01*
X141770100Y-81432400D02*
X146850100Y-81432400D01*
X140500100Y-82702400D02*
X141770100Y-81432400D01*
X140500100Y-92862400D02*
X140500100Y-82702400D01*
X148120100Y-100482400D02*
X140500100Y-92862400D01*
X148120100Y-113182400D02*
X146850100Y-111912400D01*
X144310100Y-70637400D02*
X136690100Y-78257400D01*
X136690100Y-78257400D02*
X136690100Y-98577400D01*
X144310100Y-70637400D02*
X144310100Y-66192400D01*
X136690100Y-101117400D02*
X136690100Y-98577400D01*
X146850100Y-107467400D02*
X142405100Y-103022400D01*
X146850100Y-111912400D02*
X146850100Y-107467400D01*
X145580100Y-110642400D02*
X145580100Y-107467400D01*
X145580100Y-70637400D02*
X137960100Y-78257400D01*
X137960100Y-78257400D02*
X137960100Y-98577400D01*
X145580100Y-70637400D02*
X145580100Y-66192400D01*
X137960100Y-102387400D02*
X137960100Y-98577400D01*
X139230100Y-103657400D02*
X137960100Y-102387400D01*
X141770100Y-103657400D02*
X139230100Y-103657400D01*
X145580100Y-107467400D02*
X141770100Y-103657400D01*
X145580100Y-113182400D02*
X144310100Y-111912400D01*
X143040100Y-70637400D02*
X135420100Y-78257400D01*
X135420100Y-78257400D02*
X135420100Y-98577400D01*
X143040100Y-70637400D02*
X143040100Y-66192400D01*
X135420100Y-101752400D02*
X135420100Y-98577400D01*
X137960100Y-104292400D02*
X135420100Y-101752400D01*
X141135100Y-104292400D02*
X137960100Y-104292400D01*
X144310100Y-107467400D02*
X141135100Y-104292400D01*
X144310100Y-111912400D02*
X144310100Y-107467400D01*
X130500100Y-122707400D02*
X129070100Y-122707400D01*
X153200100Y-125247400D02*
X153200100Y-122072400D01*
X151930100Y-126517400D02*
X153200100Y-125247400D01*
X129070100Y-126517400D02*
X151930100Y-126517400D01*
X128435100Y-125882400D02*
X129070100Y-126517400D01*
X128435100Y-123342400D02*
X128435100Y-125882400D01*
X129070100Y-122707400D02*
X128435100Y-123342400D01*
X154697600Y-116992400D02*
X154697600Y-120574900D01*
X154697600Y-120574900D02*
X153200100Y-122072400D01*
X130500100Y-121437400D02*
X128435100Y-121437400D01*
X158280100Y-125882400D02*
X158280100Y-122072400D01*
X157010100Y-127152400D02*
X158280100Y-125882400D01*
X128435100Y-127152400D02*
X157010100Y-127152400D01*
X127800100Y-126517400D02*
X128435100Y-127152400D01*
X127800100Y-122072400D02*
X127800100Y-126517400D01*
X128435100Y-121437400D02*
X127800100Y-122072400D01*
X156782600Y-116992400D02*
X156782600Y-120574900D01*
X156782600Y-120574900D02*
X158280100Y-122072400D01*
X154470100Y-66192400D02*
X154470100Y-56032400D01*
X155740100Y-54762400D02*
X164630100Y-54762400D01*
X154470100Y-56032400D02*
X155740100Y-54762400D01*
X158915100Y-70002400D02*
X149390100Y-70002400D01*
X149390100Y-70002400D02*
X141135100Y-78257400D01*
X126530100Y-110642400D02*
X126530100Y-95402400D01*
X121450100Y-90322400D02*
X118910100Y-90322400D01*
X126530100Y-95402400D02*
X121450100Y-90322400D01*
X158915100Y-71272400D02*
X149390100Y-71272400D01*
X149390100Y-71272400D02*
X143675100Y-76987400D01*
X122720100Y-48639900D02*
X126487600Y-48639900D01*
X126487600Y-48639900D02*
X126715100Y-48412400D01*
X126715100Y-48412400D02*
X130340100Y-48412400D01*
X130340100Y-48412400D02*
X132880100Y-50952400D01*
X132880100Y-50952400D02*
X132880100Y-56032400D01*
X133922600Y-56259900D02*
X133922600Y-59842400D01*
X134150100Y-56032400D02*
X133922600Y-56259900D01*
X125100100Y-120167400D02*
X125100100Y-114292400D01*
X127165100Y-75717400D02*
X125260100Y-73812400D01*
X127165100Y-97942400D02*
X127165100Y-75717400D01*
X136690100Y-107467400D02*
X127165100Y-97942400D01*
X136690100Y-112547400D02*
X136690100Y-107467400D01*
X135420100Y-113817400D02*
X136690100Y-112547400D01*
X125575100Y-113817400D02*
X135420100Y-113817400D01*
X125100100Y-114292400D02*
X125575100Y-113817400D01*
X117640100Y-91592400D02*
X117640100Y-96164400D01*
X117640100Y-96164400D02*
X117894100Y-96418400D01*
X117894100Y-96418400D02*
X118148100Y-96672400D01*
X118148100Y-96672400D02*
X123990100Y-96672400D01*
X123990100Y-96672400D02*
X125514100Y-98196400D01*
X127546100Y-100228400D02*
X128054100Y-100228400D01*
X125100100Y-123977400D02*
X123863100Y-123977400D01*
X136240098Y-108414398D02*
X128054100Y-100228400D01*
X136240098Y-111912400D02*
X136240098Y-108414398D01*
X135224098Y-112928400D02*
X136240098Y-111912400D01*
X124752100Y-112928400D02*
X135224098Y-112928400D01*
X122974100Y-114706400D02*
X124752100Y-112928400D01*
X122974100Y-123088400D02*
X122974100Y-114706400D01*
X123863100Y-123977400D02*
X122974100Y-123088400D01*
X127572600Y-53492400D02*
X127572600Y-55624900D01*
X117640100Y-86512400D02*
X116370100Y-87782400D01*
X120815100Y-86512400D02*
X117640100Y-86512400D01*
X121450100Y-85877400D02*
X120815100Y-86512400D01*
X121450100Y-61747400D02*
X121450100Y-85877400D01*
X127572600Y-55624900D02*
X121450100Y-61747400D01*
X127480100Y-50682400D02*
X127480100Y-53399900D01*
X127480100Y-53399900D02*
X127572600Y-53492400D01*
X128842600Y-59842400D02*
X128842600Y-60704900D01*
X120815100Y-87782400D02*
X118910100Y-87782400D01*
X122085100Y-86512400D02*
X120815100Y-87782400D01*
X122085100Y-65557400D02*
X122085100Y-86512400D01*
X123355100Y-64287400D02*
X122085100Y-65557400D01*
X125260100Y-64287400D02*
X123355100Y-64287400D01*
X128842600Y-60704900D02*
X125260100Y-64287400D01*
X128842600Y-59842400D02*
X131837600Y-59842400D01*
X125100100Y-121437400D02*
X125100100Y-122707400D01*
X130340100Y-99847400D02*
X130340100Y-99466400D01*
X125895100Y-121437400D02*
X126530100Y-120802400D01*
X126530100Y-120802400D02*
X126530100Y-115087400D01*
X126530100Y-115087400D02*
X127165100Y-114452400D01*
X127165100Y-114452400D02*
X136055100Y-114452400D01*
X136055100Y-114452400D02*
X137960100Y-112547400D01*
X137960100Y-112547400D02*
X137960100Y-107467400D01*
X137960100Y-107467400D02*
X130340100Y-99847400D01*
X125100100Y-121437400D02*
X125895100Y-121437400D01*
X130340100Y-99466400D02*
X128054100Y-97180400D01*
D29*
G36*
X168438831Y-53433105D02*
X168379799Y-53374073D01*
X168146410Y-53277400D01*
X167455850Y-53277400D01*
X167297100Y-53436150D01*
X167297100Y-54635400D01*
X167317100Y-54635400D01*
X167317100Y-54889400D01*
X167297100Y-54889400D01*
X167297100Y-56088650D01*
X167455850Y-56247400D01*
X168146410Y-56247400D01*
X168379799Y-56150727D01*
X168438831Y-56091695D01*
X168438831Y-61592162D01*
X168058590Y-61175579D01*
X167529127Y-60927432D01*
X167297100Y-61047931D01*
X167297100Y-62255400D01*
X167317100Y-62255400D01*
X167317100Y-62509400D01*
X167297100Y-62509400D01*
X167297100Y-62529400D01*
X167043100Y-62529400D01*
X167043100Y-62509400D01*
X164757100Y-62509400D01*
X164757100Y-62529400D01*
X164503100Y-62529400D01*
X164503100Y-62509400D01*
X163290250Y-62509400D01*
X163131500Y-62668150D01*
X163131500Y-63372310D01*
X163228173Y-63605699D01*
X163406802Y-63784327D01*
X163548867Y-63843172D01*
X163218450Y-64337675D01*
X163102141Y-64922400D01*
X163218450Y-65507125D01*
X163549670Y-66002830D01*
X163833381Y-66192400D01*
X163549670Y-66381970D01*
X163218450Y-66877675D01*
X163102141Y-67462400D01*
X163218450Y-68047125D01*
X163549670Y-68542830D01*
X163833381Y-68732400D01*
X163549670Y-68921970D01*
X163218450Y-69417675D01*
X163102141Y-70002400D01*
X163218450Y-70587125D01*
X163549670Y-71082830D01*
X163833381Y-71272400D01*
X163549670Y-71461970D01*
X163218450Y-71957675D01*
X163102141Y-72542400D01*
X163218450Y-73127125D01*
X163549670Y-73622830D01*
X163833381Y-73812400D01*
X163549670Y-74001970D01*
X163218450Y-74497675D01*
X163102141Y-75082400D01*
X163218450Y-75667125D01*
X163549670Y-76162830D01*
X163833381Y-76352400D01*
X163549670Y-76541970D01*
X163218450Y-77037675D01*
X163102141Y-77622400D01*
X163218450Y-78207125D01*
X163549670Y-78702830D01*
X163833381Y-78892400D01*
X163549670Y-79081970D01*
X163218450Y-79577675D01*
X163102141Y-80162400D01*
X163218450Y-80747125D01*
X163549670Y-81242830D01*
X163833381Y-81432400D01*
X163549670Y-81621970D01*
X163218450Y-82117675D01*
X163102141Y-82702400D01*
X163218450Y-83287125D01*
X163549670Y-83782830D01*
X163833381Y-83972400D01*
X163549670Y-84161970D01*
X163218450Y-84657675D01*
X163102141Y-85242400D01*
X163218450Y-85827125D01*
X163549670Y-86322830D01*
X163833381Y-86512400D01*
X163549670Y-86701970D01*
X163218450Y-87197675D01*
X163102141Y-87782400D01*
X163218450Y-88367125D01*
X163549670Y-88862830D01*
X163833381Y-89052400D01*
X163549670Y-89241970D01*
X163218450Y-89737675D01*
X163102141Y-90322400D01*
X163218450Y-90907125D01*
X163549670Y-91402830D01*
X163833381Y-91592400D01*
X163549670Y-91781970D01*
X163218450Y-92277675D01*
X163102141Y-92862400D01*
X163218450Y-93447125D01*
X163549670Y-93942830D01*
X163833381Y-94132400D01*
X163549670Y-94321970D01*
X163218450Y-94817675D01*
X163102141Y-95402400D01*
X163218450Y-95987125D01*
X163549670Y-96482830D01*
X163833381Y-96672400D01*
X163549670Y-96861970D01*
X163218450Y-97357675D01*
X163102141Y-97942400D01*
X163218450Y-98527125D01*
X163549670Y-99022830D01*
X163833381Y-99212400D01*
X163549670Y-99401970D01*
X163218450Y-99897675D01*
X163102141Y-100482400D01*
X163218450Y-101067125D01*
X163549670Y-101562830D01*
X163833381Y-101752400D01*
X163549670Y-101941970D01*
X163218450Y-102437675D01*
X163102141Y-103022400D01*
X163218450Y-103607125D01*
X163549670Y-104102830D01*
X163833381Y-104292400D01*
X163549670Y-104481970D01*
X163218450Y-104977675D01*
X163102141Y-105562400D01*
X163218450Y-106147125D01*
X163549670Y-106642830D01*
X163833381Y-106832400D01*
X163549670Y-107021970D01*
X163218450Y-107517675D01*
X163102141Y-108102400D01*
X163218450Y-108687125D01*
X163549670Y-109182830D01*
X163833381Y-109372400D01*
X163549670Y-109561970D01*
X163218450Y-110057675D01*
X163102141Y-110642400D01*
X163218450Y-111227125D01*
X163549670Y-111722830D01*
X163833381Y-111912400D01*
X163549670Y-112101970D01*
X163218450Y-112597675D01*
X163102141Y-113182400D01*
X163218450Y-113767125D01*
X163549670Y-114262830D01*
X163833381Y-114452400D01*
X163549670Y-114641970D01*
X163218450Y-115137675D01*
X163102141Y-115722400D01*
X163218450Y-116307125D01*
X163549670Y-116802830D01*
X163833381Y-116992400D01*
X163549670Y-117181970D01*
X163218450Y-117677675D01*
X163102141Y-118262400D01*
X163218450Y-118847125D01*
X163549670Y-119342830D01*
X164045375Y-119674050D01*
X164482502Y-119761000D01*
X164777698Y-119761000D01*
X165214825Y-119674050D01*
X165710530Y-119342830D01*
X165900100Y-119059119D01*
X166089670Y-119342830D01*
X166585375Y-119674050D01*
X167022502Y-119761000D01*
X167317698Y-119761000D01*
X167754825Y-119674050D01*
X168022998Y-119494862D01*
X168011196Y-119540661D01*
X167911632Y-119884482D01*
X167801927Y-120225154D01*
X167682142Y-120562477D01*
X167552424Y-120896048D01*
X167412861Y-121225636D01*
X167263578Y-121550948D01*
X167104730Y-121871649D01*
X166936396Y-122187572D01*
X166758788Y-122498322D01*
X166572051Y-122803646D01*
X166376338Y-123103296D01*
X166171795Y-123397049D01*
X165958645Y-123684579D01*
X165737072Y-123965644D01*
X165507241Y-124240032D01*
X165269354Y-124507501D01*
X165023670Y-124767759D01*
X164770362Y-125020625D01*
X164509655Y-125265873D01*
X164241788Y-125503279D01*
X163967001Y-125732630D01*
X163685536Y-125953723D01*
X163397629Y-126166375D01*
X163103560Y-126370377D01*
X162803539Y-126565587D01*
X162497888Y-126751790D01*
X162186822Y-126928861D01*
X161870625Y-127096632D01*
X161549617Y-127254935D01*
X161224075Y-127403636D01*
X160894254Y-127542620D01*
X160560398Y-127671779D01*
X160222926Y-127790953D01*
X159882016Y-127900079D01*
X159538065Y-127999029D01*
X159191300Y-128087741D01*
X158842082Y-128166121D01*
X158490659Y-128234112D01*
X158137391Y-128291646D01*
X157782571Y-128338674D01*
X157426534Y-128375153D01*
X157069512Y-128401057D01*
X156711676Y-128416368D01*
X156370655Y-128421130D01*
X127169821Y-128421130D01*
X126807217Y-128415750D01*
X126449631Y-128399825D01*
X126092719Y-128373302D01*
X125736724Y-128336199D01*
X125381981Y-128288551D01*
X125028812Y-128230401D01*
X124677504Y-128161796D01*
X124328436Y-128082810D01*
X123981839Y-127993496D01*
X123638018Y-127893932D01*
X123297346Y-127784227D01*
X122960023Y-127664442D01*
X122626452Y-127534724D01*
X122296864Y-127395161D01*
X121971552Y-127245878D01*
X121650851Y-127087030D01*
X121334928Y-126918696D01*
X121024178Y-126741088D01*
X120718854Y-126554351D01*
X120419204Y-126358638D01*
X120125451Y-126154095D01*
X119837921Y-125940945D01*
X119556856Y-125719372D01*
X119282468Y-125489541D01*
X119014999Y-125251654D01*
X118754741Y-125005970D01*
X118501875Y-124752662D01*
X118256627Y-124491955D01*
X118019221Y-124224088D01*
X117789870Y-123949301D01*
X117568777Y-123667836D01*
X117356125Y-123379929D01*
X117152123Y-123085860D01*
X116956913Y-122785839D01*
X116770710Y-122480188D01*
X116593639Y-122169122D01*
X116425868Y-121852925D01*
X116267565Y-121531917D01*
X116118864Y-121206375D01*
X115979880Y-120876554D01*
X115850721Y-120542698D01*
X115731547Y-120205226D01*
X115622421Y-119864316D01*
X115523471Y-119520365D01*
X115514307Y-119484545D01*
X116011073Y-119717368D01*
X116243100Y-119596869D01*
X116243100Y-118389400D01*
X116497100Y-118389400D01*
X116497100Y-119596869D01*
X116729127Y-119717368D01*
X117258590Y-119469221D01*
X117640100Y-119051248D01*
X118021610Y-119469221D01*
X118551073Y-119717368D01*
X118783100Y-119596869D01*
X118783100Y-118389400D01*
X119037100Y-118389400D01*
X119037100Y-119596869D01*
X119269127Y-119717368D01*
X119798590Y-119469221D01*
X120192788Y-119037347D01*
X120365058Y-118621426D01*
X120243917Y-118389400D01*
X119037100Y-118389400D01*
X118783100Y-118389400D01*
X116497100Y-118389400D01*
X116243100Y-118389400D01*
X116223100Y-118389400D01*
X116223100Y-118135400D01*
X116243100Y-118135400D01*
X116243100Y-115849400D01*
X116497100Y-115849400D01*
X116497100Y-118135400D01*
X118783100Y-118135400D01*
X118783100Y-115849400D01*
X119037100Y-115849400D01*
X119037100Y-118135400D01*
X120243917Y-118135400D01*
X120365058Y-117903374D01*
X120192788Y-117487453D01*
X119798590Y-117055579D01*
X119663787Y-116992400D01*
X119798590Y-116929221D01*
X120192788Y-116497347D01*
X120365058Y-116081426D01*
X120243917Y-115849400D01*
X119037100Y-115849400D01*
X118783100Y-115849400D01*
X116497100Y-115849400D01*
X116243100Y-115849400D01*
X116223100Y-115849400D01*
X116223100Y-115595400D01*
X116243100Y-115595400D01*
X116243100Y-115575400D01*
X116497100Y-115575400D01*
X116497100Y-115595400D01*
X118783100Y-115595400D01*
X118783100Y-115575400D01*
X119037100Y-115575400D01*
X119037100Y-115595400D01*
X120243917Y-115595400D01*
X120365058Y-115363374D01*
X120192788Y-114947453D01*
X119798590Y-114515579D01*
X119689079Y-114464254D01*
X119990530Y-114262830D01*
X120321750Y-113767125D01*
X120438059Y-113182400D01*
X120321750Y-112597675D01*
X119990530Y-112101970D01*
X119706819Y-111912400D01*
X119990530Y-111722830D01*
X120321750Y-111227125D01*
X120438059Y-110642400D01*
X120321750Y-110057675D01*
X119990530Y-109561970D01*
X119706819Y-109372400D01*
X119990530Y-109182830D01*
X120321750Y-108687125D01*
X120438059Y-108102400D01*
X120321750Y-107517675D01*
X119990530Y-107021970D01*
X119706819Y-106832400D01*
X119990530Y-106642830D01*
X120321750Y-106147125D01*
X120438059Y-105562400D01*
X120321750Y-104977675D01*
X119990530Y-104481970D01*
X119706819Y-104292400D01*
X119990530Y-104102830D01*
X120321750Y-103607125D01*
X120438059Y-103022400D01*
X120321750Y-102437675D01*
X119990530Y-101941970D01*
X119706819Y-101752400D01*
X119990530Y-101562830D01*
X120321750Y-101067125D01*
X120438059Y-100482400D01*
X120321750Y-99897675D01*
X119990530Y-99401970D01*
X119706819Y-99212400D01*
X119990530Y-99022830D01*
X120321750Y-98527125D01*
X120438059Y-97942400D01*
X120336614Y-97432400D01*
X123675299Y-97432400D01*
X124579100Y-98336202D01*
X124579100Y-98382383D01*
X124721445Y-98726035D01*
X124984465Y-98989055D01*
X125328117Y-99131400D01*
X125700083Y-99131400D01*
X125770101Y-99102398D01*
X125770100Y-109364222D01*
X125459475Y-109571775D01*
X125131261Y-110062982D01*
X125016008Y-110642400D01*
X125131261Y-111221818D01*
X125459475Y-111713025D01*
X125950682Y-112041239D01*
X126383844Y-112127400D01*
X126676356Y-112127400D01*
X127109518Y-112041239D01*
X127600725Y-111713025D01*
X127800100Y-111414639D01*
X127999475Y-111713025D01*
X128490682Y-112041239D01*
X128923844Y-112127400D01*
X129216356Y-112127400D01*
X129649518Y-112041239D01*
X130140725Y-111713025D01*
X130353943Y-111393922D01*
X130414917Y-111523758D01*
X130843176Y-111914045D01*
X131253210Y-112083876D01*
X131483100Y-111962555D01*
X131483100Y-110769400D01*
X131463100Y-110769400D01*
X131463100Y-110515400D01*
X131483100Y-110515400D01*
X131483100Y-109322245D01*
X131253210Y-109200924D01*
X130843176Y-109370755D01*
X130414917Y-109761042D01*
X130353943Y-109890878D01*
X130140725Y-109571775D01*
X129649518Y-109243561D01*
X129216356Y-109157400D01*
X128923844Y-109157400D01*
X128490682Y-109243561D01*
X127999475Y-109571775D01*
X127800100Y-109870161D01*
X127600725Y-109571775D01*
X127290100Y-109364222D01*
X127290100Y-101134398D01*
X127360117Y-101163400D01*
X127732083Y-101163400D01*
X127860929Y-101110030D01*
X135480099Y-108729202D01*
X135480099Y-109367800D01*
X135457909Y-109334591D01*
X135247865Y-109194243D01*
X135000100Y-109144960D01*
X133300100Y-109144960D01*
X133052335Y-109194243D01*
X132842291Y-109334591D01*
X132701943Y-109544635D01*
X132681361Y-109648108D01*
X132377024Y-109370755D01*
X131966990Y-109200924D01*
X131737100Y-109322245D01*
X131737100Y-110515400D01*
X131757100Y-110515400D01*
X131757100Y-110769400D01*
X131737100Y-110769400D01*
X131737100Y-111962555D01*
X131966990Y-112083876D01*
X132377024Y-111914045D01*
X132681361Y-111636692D01*
X132701943Y-111740165D01*
X132842291Y-111950209D01*
X133052335Y-112090557D01*
X133300100Y-112139840D01*
X134937857Y-112139840D01*
X134909297Y-112168400D01*
X124826948Y-112168400D01*
X124752100Y-112153512D01*
X124677252Y-112168400D01*
X124677248Y-112168400D01*
X124503705Y-112202920D01*
X124455562Y-112212496D01*
X124268518Y-112337476D01*
X124204171Y-112380471D01*
X124161771Y-112443927D01*
X122489628Y-114116071D01*
X122426172Y-114158471D01*
X122383772Y-114221927D01*
X122383771Y-114221928D01*
X122258197Y-114409863D01*
X122199212Y-114706400D01*
X122214101Y-114781252D01*
X122214100Y-123013553D01*
X122199212Y-123088400D01*
X122214100Y-123163247D01*
X122214100Y-123163251D01*
X122258196Y-123384936D01*
X122426171Y-123636329D01*
X122489630Y-123678731D01*
X123272771Y-124461873D01*
X123315171Y-124525329D01*
X123566563Y-124693304D01*
X123788248Y-124737400D01*
X123788253Y-124737400D01*
X123863100Y-124752288D01*
X123886026Y-124747728D01*
X124077335Y-124875557D01*
X124325100Y-124924840D01*
X125875100Y-124924840D01*
X126122865Y-124875557D01*
X126332909Y-124735209D01*
X126473257Y-124525165D01*
X126522540Y-124277400D01*
X126522540Y-123677400D01*
X126473257Y-123429635D01*
X126414968Y-123342400D01*
X126473257Y-123255165D01*
X126522540Y-123007400D01*
X126522540Y-122407400D01*
X126473257Y-122159635D01*
X126414968Y-122072400D01*
X126473257Y-121985165D01*
X126485950Y-121921351D01*
X127014573Y-121392729D01*
X127078029Y-121350329D01*
X127246004Y-121098937D01*
X127290100Y-120877252D01*
X127290100Y-120877248D01*
X127304988Y-120802400D01*
X127290100Y-120727552D01*
X127290100Y-115402201D01*
X127479902Y-115212400D01*
X135980253Y-115212400D01*
X136055100Y-115227288D01*
X136129947Y-115212400D01*
X136129952Y-115212400D01*
X136351637Y-115168304D01*
X136603029Y-115000329D01*
X136645431Y-114936870D01*
X138043009Y-113539292D01*
X139058614Y-113539292D01*
X139304917Y-114063758D01*
X139733176Y-114454045D01*
X140143210Y-114623876D01*
X140373100Y-114502555D01*
X140373100Y-113309400D01*
X139179281Y-113309400D01*
X139058614Y-113539292D01*
X138043009Y-113539292D01*
X138444573Y-113137729D01*
X138508029Y-113095329D01*
X138647991Y-112885862D01*
X138676004Y-112843938D01*
X138718188Y-112631863D01*
X138720100Y-112622252D01*
X138720100Y-112622248D01*
X138734988Y-112547400D01*
X138720100Y-112472552D01*
X138720100Y-110999292D01*
X139058614Y-110999292D01*
X139304917Y-111523758D01*
X139731371Y-111912400D01*
X139304917Y-112301042D01*
X139058614Y-112825508D01*
X139179281Y-113055400D01*
X140373100Y-113055400D01*
X140373100Y-110769400D01*
X139179281Y-110769400D01*
X139058614Y-110999292D01*
X138720100Y-110999292D01*
X138720100Y-110285508D01*
X139058614Y-110285508D01*
X139179281Y-110515400D01*
X140373100Y-110515400D01*
X140373100Y-109322245D01*
X140143210Y-109200924D01*
X139733176Y-109370755D01*
X139304917Y-109761042D01*
X139058614Y-110285508D01*
X138720100Y-110285508D01*
X138720100Y-107542246D01*
X138734988Y-107467399D01*
X138720100Y-107392552D01*
X138720100Y-107392548D01*
X138676004Y-107170863D01*
X138576517Y-107021970D01*
X138550429Y-106982926D01*
X138550427Y-106982924D01*
X138508029Y-106919471D01*
X138444576Y-106877073D01*
X131101535Y-99534034D01*
X131114988Y-99466399D01*
X131100100Y-99391552D01*
X131100100Y-99391549D01*
X131056004Y-99169863D01*
X130888029Y-98918471D01*
X130824573Y-98876071D01*
X128989100Y-97040599D01*
X128989100Y-96994417D01*
X128846755Y-96650765D01*
X128583735Y-96387745D01*
X128240083Y-96245400D01*
X127925100Y-96245400D01*
X127925100Y-78871978D01*
X130348100Y-81294979D01*
X130348100Y-81404166D01*
X130520893Y-81821326D01*
X130840174Y-82140607D01*
X131257334Y-82313400D01*
X131708866Y-82313400D01*
X132126026Y-82140607D01*
X132181600Y-82085033D01*
X132237174Y-82140607D01*
X132654334Y-82313400D01*
X133015100Y-82313400D01*
X133015100Y-82674166D01*
X133187893Y-83091326D01*
X133265100Y-83168533D01*
X133265101Y-83379266D01*
X133187893Y-83456474D01*
X133015100Y-83873634D01*
X133015100Y-84325166D01*
X133187893Y-84742326D01*
X133507174Y-85061607D01*
X133924334Y-85234400D01*
X134375866Y-85234400D01*
X134660100Y-85116667D01*
X134660101Y-98502548D01*
X134660100Y-101677553D01*
X134645212Y-101752400D01*
X134660100Y-101827247D01*
X134660100Y-101827251D01*
X134704196Y-102048936D01*
X134872171Y-102300329D01*
X134935630Y-102342731D01*
X137369773Y-104776876D01*
X137412171Y-104840329D01*
X137475624Y-104882727D01*
X137475626Y-104882729D01*
X137601002Y-104966502D01*
X137663563Y-105008304D01*
X137885248Y-105052400D01*
X137885252Y-105052400D01*
X137960099Y-105067288D01*
X138034946Y-105052400D01*
X140820299Y-105052400D01*
X143550101Y-107782203D01*
X143550101Y-109229753D01*
X143186356Y-109157400D01*
X142893844Y-109157400D01*
X142460682Y-109243561D01*
X141969475Y-109571775D01*
X141756257Y-109890878D01*
X141695283Y-109761042D01*
X141267024Y-109370755D01*
X140856990Y-109200924D01*
X140627100Y-109322245D01*
X140627100Y-110515400D01*
X140647100Y-110515400D01*
X140647100Y-110769400D01*
X140627100Y-110769400D01*
X140627100Y-113055400D01*
X140647100Y-113055400D01*
X140647100Y-113309400D01*
X140627100Y-113309400D01*
X140627100Y-114502555D01*
X140856990Y-114623876D01*
X141010101Y-114560460D01*
X141010101Y-116804596D01*
X140058299Y-117756400D01*
X135035100Y-117756400D01*
X135035100Y-117712533D01*
X135112307Y-117635326D01*
X135285100Y-117218166D01*
X135285100Y-116766634D01*
X135112307Y-116349474D01*
X134793026Y-116030193D01*
X134375866Y-115857400D01*
X133924334Y-115857400D01*
X133507174Y-116030193D01*
X133187893Y-116349474D01*
X133015100Y-116766634D01*
X133015100Y-117218166D01*
X133187893Y-117635326D01*
X133265101Y-117712534D01*
X133265100Y-117796267D01*
X133187893Y-117873474D01*
X133015100Y-118290634D01*
X133015100Y-118742166D01*
X133187893Y-119159326D01*
X133265100Y-119236533D01*
X133265100Y-119396987D01*
X133212753Y-119407400D01*
X131729630Y-119407400D01*
X131522865Y-119269243D01*
X131275100Y-119219960D01*
X129725100Y-119219960D01*
X129477335Y-119269243D01*
X129267291Y-119409591D01*
X129126943Y-119619635D01*
X129077660Y-119867400D01*
X129077660Y-120467400D01*
X129119431Y-120677400D01*
X128509948Y-120677400D01*
X128435100Y-120662512D01*
X128360252Y-120677400D01*
X128360248Y-120677400D01*
X128138563Y-120721496D01*
X127887171Y-120889471D01*
X127844771Y-120952927D01*
X127315630Y-121482069D01*
X127252171Y-121524471D01*
X127084196Y-121775864D01*
X127040100Y-121997549D01*
X127040100Y-121997553D01*
X127025212Y-122072400D01*
X127040100Y-122147247D01*
X127040101Y-126442548D01*
X127025212Y-126517400D01*
X127040101Y-126592252D01*
X127063938Y-126712089D01*
X127084197Y-126813937D01*
X127209115Y-127000889D01*
X127252172Y-127065329D01*
X127315628Y-127107729D01*
X127844771Y-127636873D01*
X127887171Y-127700329D01*
X128138563Y-127868304D01*
X128360248Y-127912400D01*
X128360252Y-127912400D01*
X128435100Y-127927288D01*
X128509948Y-127912400D01*
X156935253Y-127912400D01*
X157010100Y-127927288D01*
X157084947Y-127912400D01*
X157084952Y-127912400D01*
X157306637Y-127868304D01*
X157558029Y-127700329D01*
X157600431Y-127636870D01*
X158764573Y-126472729D01*
X158828029Y-126430329D01*
X158996004Y-126178937D01*
X159040100Y-125957252D01*
X159040100Y-125957248D01*
X159054988Y-125882401D01*
X159040100Y-125807554D01*
X159040100Y-124310712D01*
X159386773Y-124079073D01*
X159726038Y-123571327D01*
X159815100Y-123123582D01*
X159815100Y-121021218D01*
X159726038Y-120573473D01*
X159386773Y-120065727D01*
X158879026Y-119726462D01*
X158280100Y-119607328D01*
X157681173Y-119726462D01*
X157542600Y-119819054D01*
X157542600Y-118352544D01*
X157602865Y-118340557D01*
X157812909Y-118200209D01*
X157953257Y-117990165D01*
X158002540Y-117742400D01*
X158002540Y-116242400D01*
X157953257Y-115994635D01*
X157812909Y-115784591D01*
X157602865Y-115644243D01*
X157355100Y-115594960D01*
X156210100Y-115594960D01*
X155962335Y-115644243D01*
X155752291Y-115784591D01*
X155740100Y-115802836D01*
X155727909Y-115784591D01*
X155517865Y-115644243D01*
X155270100Y-115594960D01*
X154125100Y-115594960D01*
X153877335Y-115644243D01*
X153667291Y-115784591D01*
X153526943Y-115994635D01*
X153477660Y-116242400D01*
X153477660Y-117742400D01*
X153526943Y-117990165D01*
X153667291Y-118200209D01*
X153877335Y-118340557D01*
X153937600Y-118352544D01*
X153937601Y-119819055D01*
X153799026Y-119726462D01*
X153200100Y-119607328D01*
X152601173Y-119726462D01*
X152093427Y-120065727D01*
X151754162Y-120573474D01*
X151665100Y-121021219D01*
X151665101Y-123123582D01*
X151754163Y-123571327D01*
X152093428Y-124079073D01*
X152440100Y-124310712D01*
X152440100Y-124932598D01*
X151615299Y-125757400D01*
X129384902Y-125757400D01*
X129195100Y-125567599D01*
X129195100Y-124645426D01*
X129365402Y-124815727D01*
X129598791Y-124912400D01*
X130214350Y-124912400D01*
X130373100Y-124753650D01*
X130373100Y-124104400D01*
X130627100Y-124104400D01*
X130627100Y-124753650D01*
X130785850Y-124912400D01*
X131401409Y-124912400D01*
X131634798Y-124815727D01*
X131813427Y-124637099D01*
X131910100Y-124403710D01*
X131910100Y-124263150D01*
X131751350Y-124104400D01*
X130627100Y-124104400D01*
X130373100Y-124104400D01*
X130353100Y-124104400D01*
X130353100Y-123850400D01*
X130373100Y-123850400D01*
X130373100Y-123830400D01*
X130627100Y-123830400D01*
X130627100Y-123850400D01*
X131751350Y-123850400D01*
X131910100Y-123691650D01*
X131910100Y-123551090D01*
X131847786Y-123400650D01*
X132765100Y-123400650D01*
X132765100Y-123813709D01*
X132861773Y-124047098D01*
X133040401Y-124225727D01*
X133273790Y-124322400D01*
X133864350Y-124322400D01*
X134023100Y-124163650D01*
X134023100Y-123241900D01*
X134277100Y-123241900D01*
X134277100Y-124163650D01*
X134435850Y-124322400D01*
X135026410Y-124322400D01*
X135259799Y-124225727D01*
X135438427Y-124047098D01*
X135535100Y-123813709D01*
X135535100Y-123400650D01*
X135376350Y-123241900D01*
X134277100Y-123241900D01*
X134023100Y-123241900D01*
X132923850Y-123241900D01*
X132765100Y-123400650D01*
X131847786Y-123400650D01*
X131820332Y-123334372D01*
X131873257Y-123255165D01*
X131922540Y-123007400D01*
X131922540Y-122407400D01*
X131873257Y-122159635D01*
X131814968Y-122072400D01*
X131873257Y-121985165D01*
X131922540Y-121737400D01*
X131922540Y-121137400D01*
X131880769Y-120927400D01*
X132752660Y-120927400D01*
X132752660Y-121602400D01*
X132801943Y-121850165D01*
X132942291Y-122060209D01*
X132967453Y-122077022D01*
X132861773Y-122182702D01*
X132765100Y-122416091D01*
X132765100Y-122829150D01*
X132923850Y-122987900D01*
X134023100Y-122987900D01*
X134023100Y-122967900D01*
X134277100Y-122967900D01*
X134277100Y-122987900D01*
X135376350Y-122987900D01*
X135535100Y-122829150D01*
X135535100Y-122416091D01*
X135438427Y-122182702D01*
X135332747Y-122077022D01*
X135357909Y-122060209D01*
X135498257Y-121850165D01*
X135547540Y-121602400D01*
X135547540Y-120457400D01*
X135510742Y-120272400D01*
X141492660Y-120272400D01*
X141492660Y-123872400D01*
X141541943Y-124120165D01*
X141682291Y-124330209D01*
X141892335Y-124470557D01*
X142140100Y-124519840D01*
X143940100Y-124519840D01*
X144187865Y-124470557D01*
X144397909Y-124330209D01*
X144538257Y-124120165D01*
X144587540Y-123872400D01*
X144587540Y-122199400D01*
X146585100Y-122199400D01*
X146585100Y-123099400D01*
X146750546Y-123677152D01*
X147124494Y-124147612D01*
X147650014Y-124439156D01*
X147755360Y-124463436D01*
X147993100Y-124342778D01*
X147993100Y-122199400D01*
X148247100Y-122199400D01*
X148247100Y-124342778D01*
X148484840Y-124463436D01*
X148590186Y-124439156D01*
X149115706Y-124147612D01*
X149489654Y-123677152D01*
X149655100Y-123099400D01*
X149655100Y-122199400D01*
X148247100Y-122199400D01*
X147993100Y-122199400D01*
X146585100Y-122199400D01*
X144587540Y-122199400D01*
X144587540Y-121045400D01*
X146585100Y-121045400D01*
X146585100Y-121945400D01*
X147993100Y-121945400D01*
X147993100Y-119802022D01*
X148247100Y-119802022D01*
X148247100Y-121945400D01*
X149655100Y-121945400D01*
X149655100Y-121045400D01*
X149489654Y-120467648D01*
X149115706Y-119997188D01*
X148590186Y-119705644D01*
X148484840Y-119681364D01*
X148247100Y-119802022D01*
X147993100Y-119802022D01*
X147755360Y-119681364D01*
X147650014Y-119705644D01*
X147124494Y-119997188D01*
X146750546Y-120467648D01*
X146585100Y-121045400D01*
X144587540Y-121045400D01*
X144587540Y-120272400D01*
X144538257Y-120024635D01*
X144397909Y-119814591D01*
X144187865Y-119674243D01*
X143940100Y-119624960D01*
X142140100Y-119624960D01*
X141892335Y-119674243D01*
X141682291Y-119814591D01*
X141541943Y-120024635D01*
X141492660Y-120272400D01*
X135510742Y-120272400D01*
X135498257Y-120209635D01*
X135357909Y-119999591D01*
X135147865Y-119859243D01*
X135035100Y-119836813D01*
X135035100Y-119276400D01*
X140298253Y-119276400D01*
X140373100Y-119291288D01*
X140447947Y-119276400D01*
X140447952Y-119276400D01*
X140669637Y-119232304D01*
X140921029Y-119064329D01*
X140963431Y-119000870D01*
X142254576Y-117709727D01*
X142318029Y-117667329D01*
X142360427Y-117603876D01*
X142360429Y-117603874D01*
X142451738Y-117467219D01*
X142486004Y-117415937D01*
X142530100Y-117194252D01*
X142530100Y-117194248D01*
X142544988Y-117119401D01*
X142530100Y-117044554D01*
X142530100Y-114595047D01*
X142893844Y-114667400D01*
X143186356Y-114667400D01*
X143619518Y-114581239D01*
X144110725Y-114253025D01*
X144310100Y-113954639D01*
X144509475Y-114253025D01*
X145000682Y-114581239D01*
X145433844Y-114667400D01*
X145726356Y-114667400D01*
X146159518Y-114581239D01*
X146650725Y-114253025D01*
X146850100Y-113954639D01*
X147049475Y-114253025D01*
X147540682Y-114581239D01*
X147973844Y-114667400D01*
X148266356Y-114667400D01*
X148699518Y-114581239D01*
X149190725Y-114253025D01*
X149390100Y-113954639D01*
X149589475Y-114253025D01*
X150080682Y-114581239D01*
X150513844Y-114667400D01*
X150806356Y-114667400D01*
X151239518Y-114581239D01*
X151730725Y-114253025D01*
X151930100Y-113954639D01*
X152129475Y-114253025D01*
X152620682Y-114581239D01*
X153053844Y-114667400D01*
X153346356Y-114667400D01*
X153779518Y-114581239D01*
X154270725Y-114253025D01*
X154470100Y-113954639D01*
X154669475Y-114253025D01*
X155160682Y-114581239D01*
X155593844Y-114667400D01*
X155886356Y-114667400D01*
X156319518Y-114581239D01*
X156810725Y-114253025D01*
X157138939Y-113761818D01*
X157254192Y-113182400D01*
X157138939Y-112602982D01*
X156810725Y-112111775D01*
X156792481Y-112099584D01*
X156837865Y-112090557D01*
X157047909Y-111950209D01*
X157188257Y-111740165D01*
X157237540Y-111492400D01*
X157237540Y-109792400D01*
X157188257Y-109544635D01*
X157047909Y-109334591D01*
X156837865Y-109194243D01*
X156590100Y-109144960D01*
X156500100Y-109144960D01*
X156500100Y-108177248D01*
X156514988Y-108102400D01*
X156500100Y-108027552D01*
X156500100Y-108027548D01*
X156456004Y-107805863D01*
X156456004Y-107805862D01*
X156330429Y-107617927D01*
X156288029Y-107554471D01*
X156224573Y-107512071D01*
X154595100Y-105882599D01*
X154595100Y-104048217D01*
X154870593Y-104323710D01*
X155434770Y-104557400D01*
X156045430Y-104557400D01*
X156609607Y-104323710D01*
X157041410Y-103891907D01*
X157275100Y-103327730D01*
X157275100Y-102717070D01*
X157041410Y-102152893D01*
X156640917Y-101752400D01*
X157041410Y-101351907D01*
X157275100Y-100787730D01*
X157275100Y-100177070D01*
X157041410Y-99612893D01*
X156640917Y-99212400D01*
X157041410Y-98811907D01*
X157275100Y-98247730D01*
X157275100Y-97637070D01*
X157041410Y-97072893D01*
X156640917Y-96672400D01*
X157041410Y-96271907D01*
X157275100Y-95707730D01*
X157275100Y-95097070D01*
X157041410Y-94532893D01*
X156609607Y-94101090D01*
X156589985Y-94092962D01*
X156640654Y-93942559D01*
X155740100Y-93042005D01*
X154839546Y-93942559D01*
X154890215Y-94092962D01*
X154870593Y-94101090D01*
X154595100Y-94376583D01*
X154595100Y-93741110D01*
X154659941Y-93762954D01*
X155560495Y-92862400D01*
X155546353Y-92848258D01*
X155725958Y-92668653D01*
X155740100Y-92682795D01*
X155754243Y-92668653D01*
X155933848Y-92848258D01*
X155919705Y-92862400D01*
X156820259Y-93762954D01*
X157076743Y-93676548D01*
X157152072Y-93470650D01*
X158015100Y-93470650D01*
X158015100Y-93933709D01*
X158111773Y-94167098D01*
X158290401Y-94345727D01*
X158523790Y-94442400D01*
X159264350Y-94442400D01*
X159423100Y-94283650D01*
X159423100Y-93311900D01*
X159677100Y-93311900D01*
X159677100Y-94283650D01*
X159835850Y-94442400D01*
X160576410Y-94442400D01*
X160809799Y-94345727D01*
X160988427Y-94167098D01*
X161085100Y-93933709D01*
X161085100Y-93470650D01*
X160926350Y-93311900D01*
X159677100Y-93311900D01*
X159423100Y-93311900D01*
X158173850Y-93311900D01*
X158015100Y-93470650D01*
X157152072Y-93470650D01*
X157286558Y-93103064D01*
X157260939Y-92492940D01*
X157237392Y-92436091D01*
X158015100Y-92436091D01*
X158015100Y-92899150D01*
X158173850Y-93057900D01*
X159423100Y-93057900D01*
X159423100Y-92086150D01*
X159677100Y-92086150D01*
X159677100Y-93057900D01*
X160926350Y-93057900D01*
X161085100Y-92899150D01*
X161085100Y-92436091D01*
X160988427Y-92202702D01*
X160809799Y-92024073D01*
X160576410Y-91927400D01*
X159835850Y-91927400D01*
X159677100Y-92086150D01*
X159423100Y-92086150D01*
X159264350Y-91927400D01*
X158523790Y-91927400D01*
X158290401Y-92024073D01*
X158111773Y-92202702D01*
X158015100Y-92436091D01*
X157237392Y-92436091D01*
X157076743Y-92048252D01*
X156820261Y-91961847D01*
X156934818Y-91847290D01*
X156899986Y-91812458D01*
X157097909Y-91680209D01*
X157238257Y-91470165D01*
X157287540Y-91222400D01*
X157287540Y-91082400D01*
X158195570Y-91082400D01*
X158402335Y-91220557D01*
X158650100Y-91269840D01*
X160450100Y-91269840D01*
X160697865Y-91220557D01*
X160907909Y-91080209D01*
X161048257Y-90870165D01*
X161097540Y-90622400D01*
X161097540Y-89377400D01*
X161048257Y-89129635D01*
X160907909Y-88919591D01*
X160697865Y-88779243D01*
X160450100Y-88729960D01*
X158650100Y-88729960D01*
X158402335Y-88779243D01*
X158192291Y-88919591D01*
X158051943Y-89129635D01*
X158002660Y-89377400D01*
X158002660Y-89562400D01*
X157287540Y-89562400D01*
X157287540Y-89422400D01*
X157238257Y-89174635D01*
X157097909Y-88964591D01*
X156887865Y-88824243D01*
X156640100Y-88774960D01*
X154840100Y-88774960D01*
X154592335Y-88824243D01*
X154382291Y-88964591D01*
X154241943Y-89174635D01*
X154192660Y-89422400D01*
X154192660Y-89605158D01*
X153500100Y-88912599D01*
X153500100Y-88866417D01*
X153357755Y-88522765D01*
X153094735Y-88259745D01*
X152751083Y-88117400D01*
X152379117Y-88117400D01*
X152035465Y-88259745D01*
X151772445Y-88522765D01*
X151630100Y-88866417D01*
X151630100Y-89238383D01*
X151772445Y-89582035D01*
X152035465Y-89845055D01*
X152379117Y-89987400D01*
X152425299Y-89987400D01*
X153075101Y-90637203D01*
X153075101Y-91027598D01*
X151420100Y-89372599D01*
X151420100Y-86960163D01*
X151523700Y-86980770D01*
X152336500Y-86980770D01*
X152565100Y-86935299D01*
X152793700Y-86980770D01*
X153606500Y-86980770D01*
X153835100Y-86935299D01*
X154063700Y-86980770D01*
X154876500Y-86980770D01*
X155105100Y-86935299D01*
X155333700Y-86980770D01*
X156146500Y-86980770D01*
X156375100Y-86935299D01*
X156603700Y-86980770D01*
X157416500Y-86980770D01*
X157664265Y-86931487D01*
X157874309Y-86791139D01*
X158014657Y-86581095D01*
X158063940Y-86333330D01*
X158063940Y-84151470D01*
X158014657Y-83903705D01*
X157874309Y-83693661D01*
X157664265Y-83553313D01*
X157416500Y-83504030D01*
X156603700Y-83504030D01*
X156375100Y-83549501D01*
X156146500Y-83504030D01*
X155333700Y-83504030D01*
X155105100Y-83549501D01*
X154876500Y-83504030D01*
X154063700Y-83504030D01*
X153835100Y-83549501D01*
X153606500Y-83504030D01*
X152793700Y-83504030D01*
X152565100Y-83549501D01*
X152336500Y-83504030D01*
X151523700Y-83504030D01*
X151295100Y-83549501D01*
X151066500Y-83504030D01*
X150253700Y-83504030D01*
X150025100Y-83549501D01*
X149796500Y-83504030D01*
X148983700Y-83504030D01*
X148880100Y-83524637D01*
X148880100Y-82777246D01*
X148894988Y-82702399D01*
X148880100Y-82627552D01*
X148880100Y-82627548D01*
X148836004Y-82405863D01*
X148668029Y-82154471D01*
X148604573Y-82112071D01*
X148210652Y-81718150D01*
X157189170Y-81718150D01*
X157189170Y-81965110D01*
X157285843Y-82198499D01*
X157464472Y-82377127D01*
X157697861Y-82473800D01*
X158629350Y-82473800D01*
X158788100Y-82315050D01*
X158788100Y-81559400D01*
X159042100Y-81559400D01*
X159042100Y-82315050D01*
X159200850Y-82473800D01*
X160132339Y-82473800D01*
X160365728Y-82377127D01*
X160544357Y-82198499D01*
X160641030Y-81965110D01*
X160641030Y-81718150D01*
X160482280Y-81559400D01*
X159042100Y-81559400D01*
X158788100Y-81559400D01*
X157347920Y-81559400D01*
X157189170Y-81718150D01*
X148210652Y-81718150D01*
X147440431Y-80947930D01*
X147398029Y-80884471D01*
X147146637Y-80716496D01*
X146924952Y-80672400D01*
X146924947Y-80672400D01*
X146850100Y-80657512D01*
X146775253Y-80672400D01*
X141844946Y-80672400D01*
X141770099Y-80657512D01*
X141695252Y-80672400D01*
X141695248Y-80672400D01*
X141473563Y-80716496D01*
X141222171Y-80884471D01*
X141179771Y-80947927D01*
X140015628Y-82112071D01*
X139990100Y-82129128D01*
X139990100Y-78572201D01*
X140200100Y-78362201D01*
X140200100Y-78443383D01*
X140342445Y-78787035D01*
X140605465Y-79050055D01*
X140949117Y-79192400D01*
X141321083Y-79192400D01*
X141664735Y-79050055D01*
X141927755Y-78787035D01*
X142070100Y-78443383D01*
X142070100Y-78397201D01*
X142916356Y-77550946D01*
X143145465Y-77780055D01*
X143489117Y-77922400D01*
X143861083Y-77922400D01*
X144204735Y-77780055D01*
X144467755Y-77517035D01*
X144610100Y-77173383D01*
X144610100Y-77127201D01*
X149704902Y-72032400D01*
X157197337Y-72032400D01*
X157176730Y-72136000D01*
X157176730Y-72948800D01*
X157222201Y-73177400D01*
X157176730Y-73406000D01*
X157176730Y-74218800D01*
X157222201Y-74447400D01*
X157176730Y-74676000D01*
X157176730Y-75488800D01*
X157222201Y-75717400D01*
X157176730Y-75946000D01*
X157176730Y-76758800D01*
X157222201Y-76987400D01*
X157176730Y-77216000D01*
X157176730Y-78028800D01*
X157222201Y-78257400D01*
X157176730Y-78486000D01*
X157176730Y-79298800D01*
X157222201Y-79527400D01*
X157176730Y-79756000D01*
X157176730Y-80568800D01*
X157225231Y-80812632D01*
X157189170Y-80899690D01*
X157189170Y-81146650D01*
X157347920Y-81305400D01*
X158788100Y-81305400D01*
X158788100Y-81285400D01*
X159042100Y-81285400D01*
X159042100Y-81305400D01*
X160482280Y-81305400D01*
X160641030Y-81146650D01*
X160641030Y-80899690D01*
X160604969Y-80812632D01*
X160653470Y-80568800D01*
X160653470Y-79756000D01*
X160607999Y-79527400D01*
X160653470Y-79298800D01*
X160653470Y-78486000D01*
X160607999Y-78257400D01*
X160653470Y-78028800D01*
X160653470Y-77216000D01*
X160607999Y-76987400D01*
X160653470Y-76758800D01*
X160653470Y-75946000D01*
X160607999Y-75717400D01*
X160653470Y-75488800D01*
X160653470Y-74676000D01*
X160607999Y-74447400D01*
X160653470Y-74218800D01*
X160653470Y-73406000D01*
X160607999Y-73177400D01*
X160653470Y-72948800D01*
X160653470Y-72136000D01*
X160607999Y-71907400D01*
X160653470Y-71678800D01*
X160653470Y-70866000D01*
X160607999Y-70637400D01*
X160653470Y-70408800D01*
X160653470Y-69596000D01*
X160604187Y-69348235D01*
X160463839Y-69138191D01*
X160253795Y-68997843D01*
X160006030Y-68948560D01*
X157824170Y-68948560D01*
X157576405Y-68997843D01*
X157366361Y-69138191D01*
X157296730Y-69242400D01*
X149464947Y-69242400D01*
X149390100Y-69227512D01*
X149315253Y-69242400D01*
X149315248Y-69242400D01*
X149093563Y-69286496D01*
X148842171Y-69454471D01*
X148799771Y-69517927D01*
X147611255Y-70706444D01*
X147624988Y-70637401D01*
X147610100Y-70562554D01*
X147610100Y-67910163D01*
X147713700Y-67930770D01*
X148526500Y-67930770D01*
X148755100Y-67885299D01*
X148983700Y-67930770D01*
X149796500Y-67930770D01*
X150025100Y-67885299D01*
X150253700Y-67930770D01*
X151066500Y-67930770D01*
X151295100Y-67885299D01*
X151523700Y-67930770D01*
X152336500Y-67930770D01*
X152565100Y-67885299D01*
X152793700Y-67930770D01*
X153606500Y-67930770D01*
X153835100Y-67885299D01*
X154063700Y-67930770D01*
X154876500Y-67930770D01*
X155105100Y-67885299D01*
X155333700Y-67930770D01*
X156146500Y-67930770D01*
X156390332Y-67882269D01*
X156477390Y-67918330D01*
X156724350Y-67918330D01*
X156883100Y-67759580D01*
X156883100Y-66319400D01*
X157137100Y-66319400D01*
X157137100Y-67759580D01*
X157295850Y-67918330D01*
X157542810Y-67918330D01*
X157776199Y-67821657D01*
X157954827Y-67643028D01*
X158051500Y-67409639D01*
X158051500Y-66478150D01*
X157892750Y-66319400D01*
X157137100Y-66319400D01*
X156883100Y-66319400D01*
X156863100Y-66319400D01*
X156863100Y-66065400D01*
X156883100Y-66065400D01*
X156883100Y-64625220D01*
X157137100Y-64625220D01*
X157137100Y-66065400D01*
X157892750Y-66065400D01*
X158051500Y-65906650D01*
X158051500Y-64975161D01*
X157954827Y-64741772D01*
X157776199Y-64563143D01*
X157542810Y-64466470D01*
X157295850Y-64466470D01*
X157137100Y-64625220D01*
X156883100Y-64625220D01*
X156724350Y-64466470D01*
X156477390Y-64466470D01*
X156390332Y-64502531D01*
X156146500Y-64454030D01*
X155333700Y-64454030D01*
X155230100Y-64474637D01*
X155230100Y-61392490D01*
X163131500Y-61392490D01*
X163131500Y-62096650D01*
X163290250Y-62255400D01*
X164503100Y-62255400D01*
X164503100Y-61042550D01*
X164757100Y-61042550D01*
X164757100Y-62255400D01*
X167043100Y-62255400D01*
X167043100Y-61047931D01*
X166811073Y-60927432D01*
X166281610Y-61175579D01*
X166114629Y-61358519D01*
X166032027Y-61159101D01*
X165853398Y-60980473D01*
X165620009Y-60883800D01*
X164915850Y-60883800D01*
X164757100Y-61042550D01*
X164503100Y-61042550D01*
X164344350Y-60883800D01*
X163640191Y-60883800D01*
X163406802Y-60980473D01*
X163228173Y-61159101D01*
X163131500Y-61392490D01*
X155230100Y-61392490D01*
X155230100Y-56347201D01*
X156054902Y-55522400D01*
X163351922Y-55522400D01*
X163559475Y-55833025D01*
X164050682Y-56161239D01*
X164483844Y-56247400D01*
X164776356Y-56247400D01*
X165209518Y-56161239D01*
X165700725Y-55833025D01*
X165715196Y-55811367D01*
X165781773Y-55972098D01*
X165960401Y-56150727D01*
X166193790Y-56247400D01*
X166884350Y-56247400D01*
X167043100Y-56088650D01*
X167043100Y-54889400D01*
X167023100Y-54889400D01*
X167023100Y-54635400D01*
X167043100Y-54635400D01*
X167043100Y-53436150D01*
X166884350Y-53277400D01*
X166193790Y-53277400D01*
X165960401Y-53374073D01*
X165781773Y-53552702D01*
X165715196Y-53713433D01*
X165700725Y-53691775D01*
X165209518Y-53363561D01*
X164776356Y-53277400D01*
X164483844Y-53277400D01*
X164050682Y-53363561D01*
X163559475Y-53691775D01*
X163351922Y-54002400D01*
X155814946Y-54002400D01*
X155740099Y-53987512D01*
X155665252Y-54002400D01*
X155665248Y-54002400D01*
X155443563Y-54046496D01*
X155192171Y-54214471D01*
X155149771Y-54277927D01*
X153985628Y-55442071D01*
X153922172Y-55484471D01*
X153879772Y-55547927D01*
X153879771Y-55547928D01*
X153836370Y-55612882D01*
X153836370Y-50318670D01*
X168438831Y-50318670D01*
X168438831Y-53433105D01*
X168438831Y-53433105D01*
G37*
X168438831Y-53433105D02*
X168379799Y-53374073D01*
X168146410Y-53277400D01*
X167455850Y-53277400D01*
X167297100Y-53436150D01*
X167297100Y-54635400D01*
X167317100Y-54635400D01*
X167317100Y-54889400D01*
X167297100Y-54889400D01*
X167297100Y-56088650D01*
X167455850Y-56247400D01*
X168146410Y-56247400D01*
X168379799Y-56150727D01*
X168438831Y-56091695D01*
X168438831Y-61592162D01*
X168058590Y-61175579D01*
X167529127Y-60927432D01*
X167297100Y-61047931D01*
X167297100Y-62255400D01*
X167317100Y-62255400D01*
X167317100Y-62509400D01*
X167297100Y-62509400D01*
X167297100Y-62529400D01*
X167043100Y-62529400D01*
X167043100Y-62509400D01*
X164757100Y-62509400D01*
X164757100Y-62529400D01*
X164503100Y-62529400D01*
X164503100Y-62509400D01*
X163290250Y-62509400D01*
X163131500Y-62668150D01*
X163131500Y-63372310D01*
X163228173Y-63605699D01*
X163406802Y-63784327D01*
X163548867Y-63843172D01*
X163218450Y-64337675D01*
X163102141Y-64922400D01*
X163218450Y-65507125D01*
X163549670Y-66002830D01*
X163833381Y-66192400D01*
X163549670Y-66381970D01*
X163218450Y-66877675D01*
X163102141Y-67462400D01*
X163218450Y-68047125D01*
X163549670Y-68542830D01*
X163833381Y-68732400D01*
X163549670Y-68921970D01*
X163218450Y-69417675D01*
X163102141Y-70002400D01*
X163218450Y-70587125D01*
X163549670Y-71082830D01*
X163833381Y-71272400D01*
X163549670Y-71461970D01*
X163218450Y-71957675D01*
X163102141Y-72542400D01*
X163218450Y-73127125D01*
X163549670Y-73622830D01*
X163833381Y-73812400D01*
X163549670Y-74001970D01*
X163218450Y-74497675D01*
X163102141Y-75082400D01*
X163218450Y-75667125D01*
X163549670Y-76162830D01*
X163833381Y-76352400D01*
X163549670Y-76541970D01*
X163218450Y-77037675D01*
X163102141Y-77622400D01*
X163218450Y-78207125D01*
X163549670Y-78702830D01*
X163833381Y-78892400D01*
X163549670Y-79081970D01*
X163218450Y-79577675D01*
X163102141Y-80162400D01*
X163218450Y-80747125D01*
X163549670Y-81242830D01*
X163833381Y-81432400D01*
X163549670Y-81621970D01*
X163218450Y-82117675D01*
X163102141Y-82702400D01*
X163218450Y-83287125D01*
X163549670Y-83782830D01*
X163833381Y-83972400D01*
X163549670Y-84161970D01*
X163218450Y-84657675D01*
X163102141Y-85242400D01*
X163218450Y-85827125D01*
X163549670Y-86322830D01*
X163833381Y-86512400D01*
X163549670Y-86701970D01*
X163218450Y-87197675D01*
X163102141Y-87782400D01*
X163218450Y-88367125D01*
X163549670Y-88862830D01*
X163833381Y-89052400D01*
X163549670Y-89241970D01*
X163218450Y-89737675D01*
X163102141Y-90322400D01*
X163218450Y-90907125D01*
X163549670Y-91402830D01*
X163833381Y-91592400D01*
X163549670Y-91781970D01*
X163218450Y-92277675D01*
X163102141Y-92862400D01*
X163218450Y-93447125D01*
X163549670Y-93942830D01*
X163833381Y-94132400D01*
X163549670Y-94321970D01*
X163218450Y-94817675D01*
X163102141Y-95402400D01*
X163218450Y-95987125D01*
X163549670Y-96482830D01*
X163833381Y-96672400D01*
X163549670Y-96861970D01*
X163218450Y-97357675D01*
X163102141Y-97942400D01*
X163218450Y-98527125D01*
X163549670Y-99022830D01*
X163833381Y-99212400D01*
X163549670Y-99401970D01*
X163218450Y-99897675D01*
X163102141Y-100482400D01*
X163218450Y-101067125D01*
X163549670Y-101562830D01*
X163833381Y-101752400D01*
X163549670Y-101941970D01*
X163218450Y-102437675D01*
X163102141Y-103022400D01*
X163218450Y-103607125D01*
X163549670Y-104102830D01*
X163833381Y-104292400D01*
X163549670Y-104481970D01*
X163218450Y-104977675D01*
X163102141Y-105562400D01*
X163218450Y-106147125D01*
X163549670Y-106642830D01*
X163833381Y-106832400D01*
X163549670Y-107021970D01*
X163218450Y-107517675D01*
X163102141Y-108102400D01*
X163218450Y-108687125D01*
X163549670Y-109182830D01*
X163833381Y-109372400D01*
X163549670Y-109561970D01*
X163218450Y-110057675D01*
X163102141Y-110642400D01*
X163218450Y-111227125D01*
X163549670Y-111722830D01*
X163833381Y-111912400D01*
X163549670Y-112101970D01*
X163218450Y-112597675D01*
X163102141Y-113182400D01*
X163218450Y-113767125D01*
X163549670Y-114262830D01*
X163833381Y-114452400D01*
X163549670Y-114641970D01*
X163218450Y-115137675D01*
X163102141Y-115722400D01*
X163218450Y-116307125D01*
X163549670Y-116802830D01*
X163833381Y-116992400D01*
X163549670Y-117181970D01*
X163218450Y-117677675D01*
X163102141Y-118262400D01*
X163218450Y-118847125D01*
X163549670Y-119342830D01*
X164045375Y-119674050D01*
X164482502Y-119761000D01*
X164777698Y-119761000D01*
X165214825Y-119674050D01*
X165710530Y-119342830D01*
X165900100Y-119059119D01*
X166089670Y-119342830D01*
X166585375Y-119674050D01*
X167022502Y-119761000D01*
X167317698Y-119761000D01*
X167754825Y-119674050D01*
X168022998Y-119494862D01*
X168011196Y-119540661D01*
X167911632Y-119884482D01*
X167801927Y-120225154D01*
X167682142Y-120562477D01*
X167552424Y-120896048D01*
X167412861Y-121225636D01*
X167263578Y-121550948D01*
X167104730Y-121871649D01*
X166936396Y-122187572D01*
X166758788Y-122498322D01*
X166572051Y-122803646D01*
X166376338Y-123103296D01*
X166171795Y-123397049D01*
X165958645Y-123684579D01*
X165737072Y-123965644D01*
X165507241Y-124240032D01*
X165269354Y-124507501D01*
X165023670Y-124767759D01*
X164770362Y-125020625D01*
X164509655Y-125265873D01*
X164241788Y-125503279D01*
X163967001Y-125732630D01*
X163685536Y-125953723D01*
X163397629Y-126166375D01*
X163103560Y-126370377D01*
X162803539Y-126565587D01*
X162497888Y-126751790D01*
X162186822Y-126928861D01*
X161870625Y-127096632D01*
X161549617Y-127254935D01*
X161224075Y-127403636D01*
X160894254Y-127542620D01*
X160560398Y-127671779D01*
X160222926Y-127790953D01*
X159882016Y-127900079D01*
X159538065Y-127999029D01*
X159191300Y-128087741D01*
X158842082Y-128166121D01*
X158490659Y-128234112D01*
X158137391Y-128291646D01*
X157782571Y-128338674D01*
X157426534Y-128375153D01*
X157069512Y-128401057D01*
X156711676Y-128416368D01*
X156370655Y-128421130D01*
X127169821Y-128421130D01*
X126807217Y-128415750D01*
X126449631Y-128399825D01*
X126092719Y-128373302D01*
X125736724Y-128336199D01*
X125381981Y-128288551D01*
X125028812Y-128230401D01*
X124677504Y-128161796D01*
X124328436Y-128082810D01*
X123981839Y-127993496D01*
X123638018Y-127893932D01*
X123297346Y-127784227D01*
X122960023Y-127664442D01*
X122626452Y-127534724D01*
X122296864Y-127395161D01*
X121971552Y-127245878D01*
X121650851Y-127087030D01*
X121334928Y-126918696D01*
X121024178Y-126741088D01*
X120718854Y-126554351D01*
X120419204Y-126358638D01*
X120125451Y-126154095D01*
X119837921Y-125940945D01*
X119556856Y-125719372D01*
X119282468Y-125489541D01*
X119014999Y-125251654D01*
X118754741Y-125005970D01*
X118501875Y-124752662D01*
X118256627Y-124491955D01*
X118019221Y-124224088D01*
X117789870Y-123949301D01*
X117568777Y-123667836D01*
X117356125Y-123379929D01*
X117152123Y-123085860D01*
X116956913Y-122785839D01*
X116770710Y-122480188D01*
X116593639Y-122169122D01*
X116425868Y-121852925D01*
X116267565Y-121531917D01*
X116118864Y-121206375D01*
X115979880Y-120876554D01*
X115850721Y-120542698D01*
X115731547Y-120205226D01*
X115622421Y-119864316D01*
X115523471Y-119520365D01*
X115514307Y-119484545D01*
X116011073Y-119717368D01*
X116243100Y-119596869D01*
X116243100Y-118389400D01*
X116497100Y-118389400D01*
X116497100Y-119596869D01*
X116729127Y-119717368D01*
X117258590Y-119469221D01*
X117640100Y-119051248D01*
X118021610Y-119469221D01*
X118551073Y-119717368D01*
X118783100Y-119596869D01*
X118783100Y-118389400D01*
X119037100Y-118389400D01*
X119037100Y-119596869D01*
X119269127Y-119717368D01*
X119798590Y-119469221D01*
X120192788Y-119037347D01*
X120365058Y-118621426D01*
X120243917Y-118389400D01*
X119037100Y-118389400D01*
X118783100Y-118389400D01*
X116497100Y-118389400D01*
X116243100Y-118389400D01*
X116223100Y-118389400D01*
X116223100Y-118135400D01*
X116243100Y-118135400D01*
X116243100Y-115849400D01*
X116497100Y-115849400D01*
X116497100Y-118135400D01*
X118783100Y-118135400D01*
X118783100Y-115849400D01*
X119037100Y-115849400D01*
X119037100Y-118135400D01*
X120243917Y-118135400D01*
X120365058Y-117903374D01*
X120192788Y-117487453D01*
X119798590Y-117055579D01*
X119663787Y-116992400D01*
X119798590Y-116929221D01*
X120192788Y-116497347D01*
X120365058Y-116081426D01*
X120243917Y-115849400D01*
X119037100Y-115849400D01*
X118783100Y-115849400D01*
X116497100Y-115849400D01*
X116243100Y-115849400D01*
X116223100Y-115849400D01*
X116223100Y-115595400D01*
X116243100Y-115595400D01*
X116243100Y-115575400D01*
X116497100Y-115575400D01*
X116497100Y-115595400D01*
X118783100Y-115595400D01*
X118783100Y-115575400D01*
X119037100Y-115575400D01*
X119037100Y-115595400D01*
X120243917Y-115595400D01*
X120365058Y-115363374D01*
X120192788Y-114947453D01*
X119798590Y-114515579D01*
X119689079Y-114464254D01*
X119990530Y-114262830D01*
X120321750Y-113767125D01*
X120438059Y-113182400D01*
X120321750Y-112597675D01*
X119990530Y-112101970D01*
X119706819Y-111912400D01*
X119990530Y-111722830D01*
X120321750Y-111227125D01*
X120438059Y-110642400D01*
X120321750Y-110057675D01*
X119990530Y-109561970D01*
X119706819Y-109372400D01*
X119990530Y-109182830D01*
X120321750Y-108687125D01*
X120438059Y-108102400D01*
X120321750Y-107517675D01*
X119990530Y-107021970D01*
X119706819Y-106832400D01*
X119990530Y-106642830D01*
X120321750Y-106147125D01*
X120438059Y-105562400D01*
X120321750Y-104977675D01*
X119990530Y-104481970D01*
X119706819Y-104292400D01*
X119990530Y-104102830D01*
X120321750Y-103607125D01*
X120438059Y-103022400D01*
X120321750Y-102437675D01*
X119990530Y-101941970D01*
X119706819Y-101752400D01*
X119990530Y-101562830D01*
X120321750Y-101067125D01*
X120438059Y-100482400D01*
X120321750Y-99897675D01*
X119990530Y-99401970D01*
X119706819Y-99212400D01*
X119990530Y-99022830D01*
X120321750Y-98527125D01*
X120438059Y-97942400D01*
X120336614Y-97432400D01*
X123675299Y-97432400D01*
X124579100Y-98336202D01*
X124579100Y-98382383D01*
X124721445Y-98726035D01*
X124984465Y-98989055D01*
X125328117Y-99131400D01*
X125700083Y-99131400D01*
X125770101Y-99102398D01*
X125770100Y-109364222D01*
X125459475Y-109571775D01*
X125131261Y-110062982D01*
X125016008Y-110642400D01*
X125131261Y-111221818D01*
X125459475Y-111713025D01*
X125950682Y-112041239D01*
X126383844Y-112127400D01*
X126676356Y-112127400D01*
X127109518Y-112041239D01*
X127600725Y-111713025D01*
X127800100Y-111414639D01*
X127999475Y-111713025D01*
X128490682Y-112041239D01*
X128923844Y-112127400D01*
X129216356Y-112127400D01*
X129649518Y-112041239D01*
X130140725Y-111713025D01*
X130353943Y-111393922D01*
X130414917Y-111523758D01*
X130843176Y-111914045D01*
X131253210Y-112083876D01*
X131483100Y-111962555D01*
X131483100Y-110769400D01*
X131463100Y-110769400D01*
X131463100Y-110515400D01*
X131483100Y-110515400D01*
X131483100Y-109322245D01*
X131253210Y-109200924D01*
X130843176Y-109370755D01*
X130414917Y-109761042D01*
X130353943Y-109890878D01*
X130140725Y-109571775D01*
X129649518Y-109243561D01*
X129216356Y-109157400D01*
X128923844Y-109157400D01*
X128490682Y-109243561D01*
X127999475Y-109571775D01*
X127800100Y-109870161D01*
X127600725Y-109571775D01*
X127290100Y-109364222D01*
X127290100Y-101134398D01*
X127360117Y-101163400D01*
X127732083Y-101163400D01*
X127860929Y-101110030D01*
X135480099Y-108729202D01*
X135480099Y-109367800D01*
X135457909Y-109334591D01*
X135247865Y-109194243D01*
X135000100Y-109144960D01*
X133300100Y-109144960D01*
X133052335Y-109194243D01*
X132842291Y-109334591D01*
X132701943Y-109544635D01*
X132681361Y-109648108D01*
X132377024Y-109370755D01*
X131966990Y-109200924D01*
X131737100Y-109322245D01*
X131737100Y-110515400D01*
X131757100Y-110515400D01*
X131757100Y-110769400D01*
X131737100Y-110769400D01*
X131737100Y-111962555D01*
X131966990Y-112083876D01*
X132377024Y-111914045D01*
X132681361Y-111636692D01*
X132701943Y-111740165D01*
X132842291Y-111950209D01*
X133052335Y-112090557D01*
X133300100Y-112139840D01*
X134937857Y-112139840D01*
X134909297Y-112168400D01*
X124826948Y-112168400D01*
X124752100Y-112153512D01*
X124677252Y-112168400D01*
X124677248Y-112168400D01*
X124503705Y-112202920D01*
X124455562Y-112212496D01*
X124268518Y-112337476D01*
X124204171Y-112380471D01*
X124161771Y-112443927D01*
X122489628Y-114116071D01*
X122426172Y-114158471D01*
X122383772Y-114221927D01*
X122383771Y-114221928D01*
X122258197Y-114409863D01*
X122199212Y-114706400D01*
X122214101Y-114781252D01*
X122214100Y-123013553D01*
X122199212Y-123088400D01*
X122214100Y-123163247D01*
X122214100Y-123163251D01*
X122258196Y-123384936D01*
X122426171Y-123636329D01*
X122489630Y-123678731D01*
X123272771Y-124461873D01*
X123315171Y-124525329D01*
X123566563Y-124693304D01*
X123788248Y-124737400D01*
X123788253Y-124737400D01*
X123863100Y-124752288D01*
X123886026Y-124747728D01*
X124077335Y-124875557D01*
X124325100Y-124924840D01*
X125875100Y-124924840D01*
X126122865Y-124875557D01*
X126332909Y-124735209D01*
X126473257Y-124525165D01*
X126522540Y-124277400D01*
X126522540Y-123677400D01*
X126473257Y-123429635D01*
X126414968Y-123342400D01*
X126473257Y-123255165D01*
X126522540Y-123007400D01*
X126522540Y-122407400D01*
X126473257Y-122159635D01*
X126414968Y-122072400D01*
X126473257Y-121985165D01*
X126485950Y-121921351D01*
X127014573Y-121392729D01*
X127078029Y-121350329D01*
X127246004Y-121098937D01*
X127290100Y-120877252D01*
X127290100Y-120877248D01*
X127304988Y-120802400D01*
X127290100Y-120727552D01*
X127290100Y-115402201D01*
X127479902Y-115212400D01*
X135980253Y-115212400D01*
X136055100Y-115227288D01*
X136129947Y-115212400D01*
X136129952Y-115212400D01*
X136351637Y-115168304D01*
X136603029Y-115000329D01*
X136645431Y-114936870D01*
X138043009Y-113539292D01*
X139058614Y-113539292D01*
X139304917Y-114063758D01*
X139733176Y-114454045D01*
X140143210Y-114623876D01*
X140373100Y-114502555D01*
X140373100Y-113309400D01*
X139179281Y-113309400D01*
X139058614Y-113539292D01*
X138043009Y-113539292D01*
X138444573Y-113137729D01*
X138508029Y-113095329D01*
X138647991Y-112885862D01*
X138676004Y-112843938D01*
X138718188Y-112631863D01*
X138720100Y-112622252D01*
X138720100Y-112622248D01*
X138734988Y-112547400D01*
X138720100Y-112472552D01*
X138720100Y-110999292D01*
X139058614Y-110999292D01*
X139304917Y-111523758D01*
X139731371Y-111912400D01*
X139304917Y-112301042D01*
X139058614Y-112825508D01*
X139179281Y-113055400D01*
X140373100Y-113055400D01*
X140373100Y-110769400D01*
X139179281Y-110769400D01*
X139058614Y-110999292D01*
X138720100Y-110999292D01*
X138720100Y-110285508D01*
X139058614Y-110285508D01*
X139179281Y-110515400D01*
X140373100Y-110515400D01*
X140373100Y-109322245D01*
X140143210Y-109200924D01*
X139733176Y-109370755D01*
X139304917Y-109761042D01*
X139058614Y-110285508D01*
X138720100Y-110285508D01*
X138720100Y-107542246D01*
X138734988Y-107467399D01*
X138720100Y-107392552D01*
X138720100Y-107392548D01*
X138676004Y-107170863D01*
X138576517Y-107021970D01*
X138550429Y-106982926D01*
X138550427Y-106982924D01*
X138508029Y-106919471D01*
X138444576Y-106877073D01*
X131101535Y-99534034D01*
X131114988Y-99466399D01*
X131100100Y-99391552D01*
X131100100Y-99391549D01*
X131056004Y-99169863D01*
X130888029Y-98918471D01*
X130824573Y-98876071D01*
X128989100Y-97040599D01*
X128989100Y-96994417D01*
X128846755Y-96650765D01*
X128583735Y-96387745D01*
X128240083Y-96245400D01*
X127925100Y-96245400D01*
X127925100Y-78871978D01*
X130348100Y-81294979D01*
X130348100Y-81404166D01*
X130520893Y-81821326D01*
X130840174Y-82140607D01*
X131257334Y-82313400D01*
X131708866Y-82313400D01*
X132126026Y-82140607D01*
X132181600Y-82085033D01*
X132237174Y-82140607D01*
X132654334Y-82313400D01*
X133015100Y-82313400D01*
X133015100Y-82674166D01*
X133187893Y-83091326D01*
X133265100Y-83168533D01*
X133265101Y-83379266D01*
X133187893Y-83456474D01*
X133015100Y-83873634D01*
X133015100Y-84325166D01*
X133187893Y-84742326D01*
X133507174Y-85061607D01*
X133924334Y-85234400D01*
X134375866Y-85234400D01*
X134660100Y-85116667D01*
X134660101Y-98502548D01*
X134660100Y-101677553D01*
X134645212Y-101752400D01*
X134660100Y-101827247D01*
X134660100Y-101827251D01*
X134704196Y-102048936D01*
X134872171Y-102300329D01*
X134935630Y-102342731D01*
X137369773Y-104776876D01*
X137412171Y-104840329D01*
X137475624Y-104882727D01*
X137475626Y-104882729D01*
X137601002Y-104966502D01*
X137663563Y-105008304D01*
X137885248Y-105052400D01*
X137885252Y-105052400D01*
X137960099Y-105067288D01*
X138034946Y-105052400D01*
X140820299Y-105052400D01*
X143550101Y-107782203D01*
X143550101Y-109229753D01*
X143186356Y-109157400D01*
X142893844Y-109157400D01*
X142460682Y-109243561D01*
X141969475Y-109571775D01*
X141756257Y-109890878D01*
X141695283Y-109761042D01*
X141267024Y-109370755D01*
X140856990Y-109200924D01*
X140627100Y-109322245D01*
X140627100Y-110515400D01*
X140647100Y-110515400D01*
X140647100Y-110769400D01*
X140627100Y-110769400D01*
X140627100Y-113055400D01*
X140647100Y-113055400D01*
X140647100Y-113309400D01*
X140627100Y-113309400D01*
X140627100Y-114502555D01*
X140856990Y-114623876D01*
X141010101Y-114560460D01*
X141010101Y-116804596D01*
X140058299Y-117756400D01*
X135035100Y-117756400D01*
X135035100Y-117712533D01*
X135112307Y-117635326D01*
X135285100Y-117218166D01*
X135285100Y-116766634D01*
X135112307Y-116349474D01*
X134793026Y-116030193D01*
X134375866Y-115857400D01*
X133924334Y-115857400D01*
X133507174Y-116030193D01*
X133187893Y-116349474D01*
X133015100Y-116766634D01*
X133015100Y-117218166D01*
X133187893Y-117635326D01*
X133265101Y-117712534D01*
X133265100Y-117796267D01*
X133187893Y-117873474D01*
X133015100Y-118290634D01*
X133015100Y-118742166D01*
X133187893Y-119159326D01*
X133265100Y-119236533D01*
X133265100Y-119396987D01*
X133212753Y-119407400D01*
X131729630Y-119407400D01*
X131522865Y-119269243D01*
X131275100Y-119219960D01*
X129725100Y-119219960D01*
X129477335Y-119269243D01*
X129267291Y-119409591D01*
X129126943Y-119619635D01*
X129077660Y-119867400D01*
X129077660Y-120467400D01*
X129119431Y-120677400D01*
X128509948Y-120677400D01*
X128435100Y-120662512D01*
X128360252Y-120677400D01*
X128360248Y-120677400D01*
X128138563Y-120721496D01*
X127887171Y-120889471D01*
X127844771Y-120952927D01*
X127315630Y-121482069D01*
X127252171Y-121524471D01*
X127084196Y-121775864D01*
X127040100Y-121997549D01*
X127040100Y-121997553D01*
X127025212Y-122072400D01*
X127040100Y-122147247D01*
X127040101Y-126442548D01*
X127025212Y-126517400D01*
X127040101Y-126592252D01*
X127063938Y-126712089D01*
X127084197Y-126813937D01*
X127209115Y-127000889D01*
X127252172Y-127065329D01*
X127315628Y-127107729D01*
X127844771Y-127636873D01*
X127887171Y-127700329D01*
X128138563Y-127868304D01*
X128360248Y-127912400D01*
X128360252Y-127912400D01*
X128435100Y-127927288D01*
X128509948Y-127912400D01*
X156935253Y-127912400D01*
X157010100Y-127927288D01*
X157084947Y-127912400D01*
X157084952Y-127912400D01*
X157306637Y-127868304D01*
X157558029Y-127700329D01*
X157600431Y-127636870D01*
X158764573Y-126472729D01*
X158828029Y-126430329D01*
X158996004Y-126178937D01*
X159040100Y-125957252D01*
X159040100Y-125957248D01*
X159054988Y-125882401D01*
X159040100Y-125807554D01*
X159040100Y-124310712D01*
X159386773Y-124079073D01*
X159726038Y-123571327D01*
X159815100Y-123123582D01*
X159815100Y-121021218D01*
X159726038Y-120573473D01*
X159386773Y-120065727D01*
X158879026Y-119726462D01*
X158280100Y-119607328D01*
X157681173Y-119726462D01*
X157542600Y-119819054D01*
X157542600Y-118352544D01*
X157602865Y-118340557D01*
X157812909Y-118200209D01*
X157953257Y-117990165D01*
X158002540Y-117742400D01*
X158002540Y-116242400D01*
X157953257Y-115994635D01*
X157812909Y-115784591D01*
X157602865Y-115644243D01*
X157355100Y-115594960D01*
X156210100Y-115594960D01*
X155962335Y-115644243D01*
X155752291Y-115784591D01*
X155740100Y-115802836D01*
X155727909Y-115784591D01*
X155517865Y-115644243D01*
X155270100Y-115594960D01*
X154125100Y-115594960D01*
X153877335Y-115644243D01*
X153667291Y-115784591D01*
X153526943Y-115994635D01*
X153477660Y-116242400D01*
X153477660Y-117742400D01*
X153526943Y-117990165D01*
X153667291Y-118200209D01*
X153877335Y-118340557D01*
X153937600Y-118352544D01*
X153937601Y-119819055D01*
X153799026Y-119726462D01*
X153200100Y-119607328D01*
X152601173Y-119726462D01*
X152093427Y-120065727D01*
X151754162Y-120573474D01*
X151665100Y-121021219D01*
X151665101Y-123123582D01*
X151754163Y-123571327D01*
X152093428Y-124079073D01*
X152440100Y-124310712D01*
X152440100Y-124932598D01*
X151615299Y-125757400D01*
X129384902Y-125757400D01*
X129195100Y-125567599D01*
X129195100Y-124645426D01*
X129365402Y-124815727D01*
X129598791Y-124912400D01*
X130214350Y-124912400D01*
X130373100Y-124753650D01*
X130373100Y-124104400D01*
X130627100Y-124104400D01*
X130627100Y-124753650D01*
X130785850Y-124912400D01*
X131401409Y-124912400D01*
X131634798Y-124815727D01*
X131813427Y-124637099D01*
X131910100Y-124403710D01*
X131910100Y-124263150D01*
X131751350Y-124104400D01*
X130627100Y-124104400D01*
X130373100Y-124104400D01*
X130353100Y-124104400D01*
X130353100Y-123850400D01*
X130373100Y-123850400D01*
X130373100Y-123830400D01*
X130627100Y-123830400D01*
X130627100Y-123850400D01*
X131751350Y-123850400D01*
X131910100Y-123691650D01*
X131910100Y-123551090D01*
X131847786Y-123400650D01*
X132765100Y-123400650D01*
X132765100Y-123813709D01*
X132861773Y-124047098D01*
X133040401Y-124225727D01*
X133273790Y-124322400D01*
X133864350Y-124322400D01*
X134023100Y-124163650D01*
X134023100Y-123241900D01*
X134277100Y-123241900D01*
X134277100Y-124163650D01*
X134435850Y-124322400D01*
X135026410Y-124322400D01*
X135259799Y-124225727D01*
X135438427Y-124047098D01*
X135535100Y-123813709D01*
X135535100Y-123400650D01*
X135376350Y-123241900D01*
X134277100Y-123241900D01*
X134023100Y-123241900D01*
X132923850Y-123241900D01*
X132765100Y-123400650D01*
X131847786Y-123400650D01*
X131820332Y-123334372D01*
X131873257Y-123255165D01*
X131922540Y-123007400D01*
X131922540Y-122407400D01*
X131873257Y-122159635D01*
X131814968Y-122072400D01*
X131873257Y-121985165D01*
X131922540Y-121737400D01*
X131922540Y-121137400D01*
X131880769Y-120927400D01*
X132752660Y-120927400D01*
X132752660Y-121602400D01*
X132801943Y-121850165D01*
X132942291Y-122060209D01*
X132967453Y-122077022D01*
X132861773Y-122182702D01*
X132765100Y-122416091D01*
X132765100Y-122829150D01*
X132923850Y-122987900D01*
X134023100Y-122987900D01*
X134023100Y-122967900D01*
X134277100Y-122967900D01*
X134277100Y-122987900D01*
X135376350Y-122987900D01*
X135535100Y-122829150D01*
X135535100Y-122416091D01*
X135438427Y-122182702D01*
X135332747Y-122077022D01*
X135357909Y-122060209D01*
X135498257Y-121850165D01*
X135547540Y-121602400D01*
X135547540Y-120457400D01*
X135510742Y-120272400D01*
X141492660Y-120272400D01*
X141492660Y-123872400D01*
X141541943Y-124120165D01*
X141682291Y-124330209D01*
X141892335Y-124470557D01*
X142140100Y-124519840D01*
X143940100Y-124519840D01*
X144187865Y-124470557D01*
X144397909Y-124330209D01*
X144538257Y-124120165D01*
X144587540Y-123872400D01*
X144587540Y-122199400D01*
X146585100Y-122199400D01*
X146585100Y-123099400D01*
X146750546Y-123677152D01*
X147124494Y-124147612D01*
X147650014Y-124439156D01*
X147755360Y-124463436D01*
X147993100Y-124342778D01*
X147993100Y-122199400D01*
X148247100Y-122199400D01*
X148247100Y-124342778D01*
X148484840Y-124463436D01*
X148590186Y-124439156D01*
X149115706Y-124147612D01*
X149489654Y-123677152D01*
X149655100Y-123099400D01*
X149655100Y-122199400D01*
X148247100Y-122199400D01*
X147993100Y-122199400D01*
X146585100Y-122199400D01*
X144587540Y-122199400D01*
X144587540Y-121045400D01*
X146585100Y-121045400D01*
X146585100Y-121945400D01*
X147993100Y-121945400D01*
X147993100Y-119802022D01*
X148247100Y-119802022D01*
X148247100Y-121945400D01*
X149655100Y-121945400D01*
X149655100Y-121045400D01*
X149489654Y-120467648D01*
X149115706Y-119997188D01*
X148590186Y-119705644D01*
X148484840Y-119681364D01*
X148247100Y-119802022D01*
X147993100Y-119802022D01*
X147755360Y-119681364D01*
X147650014Y-119705644D01*
X147124494Y-119997188D01*
X146750546Y-120467648D01*
X146585100Y-121045400D01*
X144587540Y-121045400D01*
X144587540Y-120272400D01*
X144538257Y-120024635D01*
X144397909Y-119814591D01*
X144187865Y-119674243D01*
X143940100Y-119624960D01*
X142140100Y-119624960D01*
X141892335Y-119674243D01*
X141682291Y-119814591D01*
X141541943Y-120024635D01*
X141492660Y-120272400D01*
X135510742Y-120272400D01*
X135498257Y-120209635D01*
X135357909Y-119999591D01*
X135147865Y-119859243D01*
X135035100Y-119836813D01*
X135035100Y-119276400D01*
X140298253Y-119276400D01*
X140373100Y-119291288D01*
X140447947Y-119276400D01*
X140447952Y-119276400D01*
X140669637Y-119232304D01*
X140921029Y-119064329D01*
X140963431Y-119000870D01*
X142254576Y-117709727D01*
X142318029Y-117667329D01*
X142360427Y-117603876D01*
X142360429Y-117603874D01*
X142451738Y-117467219D01*
X142486004Y-117415937D01*
X142530100Y-117194252D01*
X142530100Y-117194248D01*
X142544988Y-117119401D01*
X142530100Y-117044554D01*
X142530100Y-114595047D01*
X142893844Y-114667400D01*
X143186356Y-114667400D01*
X143619518Y-114581239D01*
X144110725Y-114253025D01*
X144310100Y-113954639D01*
X144509475Y-114253025D01*
X145000682Y-114581239D01*
X145433844Y-114667400D01*
X145726356Y-114667400D01*
X146159518Y-114581239D01*
X146650725Y-114253025D01*
X146850100Y-113954639D01*
X147049475Y-114253025D01*
X147540682Y-114581239D01*
X147973844Y-114667400D01*
X148266356Y-114667400D01*
X148699518Y-114581239D01*
X149190725Y-114253025D01*
X149390100Y-113954639D01*
X149589475Y-114253025D01*
X150080682Y-114581239D01*
X150513844Y-114667400D01*
X150806356Y-114667400D01*
X151239518Y-114581239D01*
X151730725Y-114253025D01*
X151930100Y-113954639D01*
X152129475Y-114253025D01*
X152620682Y-114581239D01*
X153053844Y-114667400D01*
X153346356Y-114667400D01*
X153779518Y-114581239D01*
X154270725Y-114253025D01*
X154470100Y-113954639D01*
X154669475Y-114253025D01*
X155160682Y-114581239D01*
X155593844Y-114667400D01*
X155886356Y-114667400D01*
X156319518Y-114581239D01*
X156810725Y-114253025D01*
X157138939Y-113761818D01*
X157254192Y-113182400D01*
X157138939Y-112602982D01*
X156810725Y-112111775D01*
X156792481Y-112099584D01*
X156837865Y-112090557D01*
X157047909Y-111950209D01*
X157188257Y-111740165D01*
X157237540Y-111492400D01*
X157237540Y-109792400D01*
X157188257Y-109544635D01*
X157047909Y-109334591D01*
X156837865Y-109194243D01*
X156590100Y-109144960D01*
X156500100Y-109144960D01*
X156500100Y-108177248D01*
X156514988Y-108102400D01*
X156500100Y-108027552D01*
X156500100Y-108027548D01*
X156456004Y-107805863D01*
X156456004Y-107805862D01*
X156330429Y-107617927D01*
X156288029Y-107554471D01*
X156224573Y-107512071D01*
X154595100Y-105882599D01*
X154595100Y-104048217D01*
X154870593Y-104323710D01*
X155434770Y-104557400D01*
X156045430Y-104557400D01*
X156609607Y-104323710D01*
X157041410Y-103891907D01*
X157275100Y-103327730D01*
X157275100Y-102717070D01*
X157041410Y-102152893D01*
X156640917Y-101752400D01*
X157041410Y-101351907D01*
X157275100Y-100787730D01*
X157275100Y-100177070D01*
X157041410Y-99612893D01*
X156640917Y-99212400D01*
X157041410Y-98811907D01*
X157275100Y-98247730D01*
X157275100Y-97637070D01*
X157041410Y-97072893D01*
X156640917Y-96672400D01*
X157041410Y-96271907D01*
X157275100Y-95707730D01*
X157275100Y-95097070D01*
X157041410Y-94532893D01*
X156609607Y-94101090D01*
X156589985Y-94092962D01*
X156640654Y-93942559D01*
X155740100Y-93042005D01*
X154839546Y-93942559D01*
X154890215Y-94092962D01*
X154870593Y-94101090D01*
X154595100Y-94376583D01*
X154595100Y-93741110D01*
X154659941Y-93762954D01*
X155560495Y-92862400D01*
X155546353Y-92848258D01*
X155725958Y-92668653D01*
X155740100Y-92682795D01*
X155754243Y-92668653D01*
X155933848Y-92848258D01*
X155919705Y-92862400D01*
X156820259Y-93762954D01*
X157076743Y-93676548D01*
X157152072Y-93470650D01*
X158015100Y-93470650D01*
X158015100Y-93933709D01*
X158111773Y-94167098D01*
X158290401Y-94345727D01*
X158523790Y-94442400D01*
X159264350Y-94442400D01*
X159423100Y-94283650D01*
X159423100Y-93311900D01*
X159677100Y-93311900D01*
X159677100Y-94283650D01*
X159835850Y-94442400D01*
X160576410Y-94442400D01*
X160809799Y-94345727D01*
X160988427Y-94167098D01*
X161085100Y-93933709D01*
X161085100Y-93470650D01*
X160926350Y-93311900D01*
X159677100Y-93311900D01*
X159423100Y-93311900D01*
X158173850Y-93311900D01*
X158015100Y-93470650D01*
X157152072Y-93470650D01*
X157286558Y-93103064D01*
X157260939Y-92492940D01*
X157237392Y-92436091D01*
X158015100Y-92436091D01*
X158015100Y-92899150D01*
X158173850Y-93057900D01*
X159423100Y-93057900D01*
X159423100Y-92086150D01*
X159677100Y-92086150D01*
X159677100Y-93057900D01*
X160926350Y-93057900D01*
X161085100Y-92899150D01*
X161085100Y-92436091D01*
X160988427Y-92202702D01*
X160809799Y-92024073D01*
X160576410Y-91927400D01*
X159835850Y-91927400D01*
X159677100Y-92086150D01*
X159423100Y-92086150D01*
X159264350Y-91927400D01*
X158523790Y-91927400D01*
X158290401Y-92024073D01*
X158111773Y-92202702D01*
X158015100Y-92436091D01*
X157237392Y-92436091D01*
X157076743Y-92048252D01*
X156820261Y-91961847D01*
X156934818Y-91847290D01*
X156899986Y-91812458D01*
X157097909Y-91680209D01*
X157238257Y-91470165D01*
X157287540Y-91222400D01*
X157287540Y-91082400D01*
X158195570Y-91082400D01*
X158402335Y-91220557D01*
X158650100Y-91269840D01*
X160450100Y-91269840D01*
X160697865Y-91220557D01*
X160907909Y-91080209D01*
X161048257Y-90870165D01*
X161097540Y-90622400D01*
X161097540Y-89377400D01*
X161048257Y-89129635D01*
X160907909Y-88919591D01*
X160697865Y-88779243D01*
X160450100Y-88729960D01*
X158650100Y-88729960D01*
X158402335Y-88779243D01*
X158192291Y-88919591D01*
X158051943Y-89129635D01*
X158002660Y-89377400D01*
X158002660Y-89562400D01*
X157287540Y-89562400D01*
X157287540Y-89422400D01*
X157238257Y-89174635D01*
X157097909Y-88964591D01*
X156887865Y-88824243D01*
X156640100Y-88774960D01*
X154840100Y-88774960D01*
X154592335Y-88824243D01*
X154382291Y-88964591D01*
X154241943Y-89174635D01*
X154192660Y-89422400D01*
X154192660Y-89605158D01*
X153500100Y-88912599D01*
X153500100Y-88866417D01*
X153357755Y-88522765D01*
X153094735Y-88259745D01*
X152751083Y-88117400D01*
X152379117Y-88117400D01*
X152035465Y-88259745D01*
X151772445Y-88522765D01*
X151630100Y-88866417D01*
X151630100Y-89238383D01*
X151772445Y-89582035D01*
X152035465Y-89845055D01*
X152379117Y-89987400D01*
X152425299Y-89987400D01*
X153075101Y-90637203D01*
X153075101Y-91027598D01*
X151420100Y-89372599D01*
X151420100Y-86960163D01*
X151523700Y-86980770D01*
X152336500Y-86980770D01*
X152565100Y-86935299D01*
X152793700Y-86980770D01*
X153606500Y-86980770D01*
X153835100Y-86935299D01*
X154063700Y-86980770D01*
X154876500Y-86980770D01*
X155105100Y-86935299D01*
X155333700Y-86980770D01*
X156146500Y-86980770D01*
X156375100Y-86935299D01*
X156603700Y-86980770D01*
X157416500Y-86980770D01*
X157664265Y-86931487D01*
X157874309Y-86791139D01*
X158014657Y-86581095D01*
X158063940Y-86333330D01*
X158063940Y-84151470D01*
X158014657Y-83903705D01*
X157874309Y-83693661D01*
X157664265Y-83553313D01*
X157416500Y-83504030D01*
X156603700Y-83504030D01*
X156375100Y-83549501D01*
X156146500Y-83504030D01*
X155333700Y-83504030D01*
X155105100Y-83549501D01*
X154876500Y-83504030D01*
X154063700Y-83504030D01*
X153835100Y-83549501D01*
X153606500Y-83504030D01*
X152793700Y-83504030D01*
X152565100Y-83549501D01*
X152336500Y-83504030D01*
X151523700Y-83504030D01*
X151295100Y-83549501D01*
X151066500Y-83504030D01*
X150253700Y-83504030D01*
X150025100Y-83549501D01*
X149796500Y-83504030D01*
X148983700Y-83504030D01*
X148880100Y-83524637D01*
X148880100Y-82777246D01*
X148894988Y-82702399D01*
X148880100Y-82627552D01*
X148880100Y-82627548D01*
X148836004Y-82405863D01*
X148668029Y-82154471D01*
X148604573Y-82112071D01*
X148210652Y-81718150D01*
X157189170Y-81718150D01*
X157189170Y-81965110D01*
X157285843Y-82198499D01*
X157464472Y-82377127D01*
X157697861Y-82473800D01*
X158629350Y-82473800D01*
X158788100Y-82315050D01*
X158788100Y-81559400D01*
X159042100Y-81559400D01*
X159042100Y-82315050D01*
X159200850Y-82473800D01*
X160132339Y-82473800D01*
X160365728Y-82377127D01*
X160544357Y-82198499D01*
X160641030Y-81965110D01*
X160641030Y-81718150D01*
X160482280Y-81559400D01*
X159042100Y-81559400D01*
X158788100Y-81559400D01*
X157347920Y-81559400D01*
X157189170Y-81718150D01*
X148210652Y-81718150D01*
X147440431Y-80947930D01*
X147398029Y-80884471D01*
X147146637Y-80716496D01*
X146924952Y-80672400D01*
X146924947Y-80672400D01*
X146850100Y-80657512D01*
X146775253Y-80672400D01*
X141844946Y-80672400D01*
X141770099Y-80657512D01*
X141695252Y-80672400D01*
X141695248Y-80672400D01*
X141473563Y-80716496D01*
X141222171Y-80884471D01*
X141179771Y-80947927D01*
X140015628Y-82112071D01*
X139990100Y-82129128D01*
X139990100Y-78572201D01*
X140200100Y-78362201D01*
X140200100Y-78443383D01*
X140342445Y-78787035D01*
X140605465Y-79050055D01*
X140949117Y-79192400D01*
X141321083Y-79192400D01*
X141664735Y-79050055D01*
X141927755Y-78787035D01*
X142070100Y-78443383D01*
X142070100Y-78397201D01*
X142916356Y-77550946D01*
X143145465Y-77780055D01*
X143489117Y-77922400D01*
X143861083Y-77922400D01*
X144204735Y-77780055D01*
X144467755Y-77517035D01*
X144610100Y-77173383D01*
X144610100Y-77127201D01*
X149704902Y-72032400D01*
X157197337Y-72032400D01*
X157176730Y-72136000D01*
X157176730Y-72948800D01*
X157222201Y-73177400D01*
X157176730Y-73406000D01*
X157176730Y-74218800D01*
X157222201Y-74447400D01*
X157176730Y-74676000D01*
X157176730Y-75488800D01*
X157222201Y-75717400D01*
X157176730Y-75946000D01*
X157176730Y-76758800D01*
X157222201Y-76987400D01*
X157176730Y-77216000D01*
X157176730Y-78028800D01*
X157222201Y-78257400D01*
X157176730Y-78486000D01*
X157176730Y-79298800D01*
X157222201Y-79527400D01*
X157176730Y-79756000D01*
X157176730Y-80568800D01*
X157225231Y-80812632D01*
X157189170Y-80899690D01*
X157189170Y-81146650D01*
X157347920Y-81305400D01*
X158788100Y-81305400D01*
X158788100Y-81285400D01*
X159042100Y-81285400D01*
X159042100Y-81305400D01*
X160482280Y-81305400D01*
X160641030Y-81146650D01*
X160641030Y-80899690D01*
X160604969Y-80812632D01*
X160653470Y-80568800D01*
X160653470Y-79756000D01*
X160607999Y-79527400D01*
X160653470Y-79298800D01*
X160653470Y-78486000D01*
X160607999Y-78257400D01*
X160653470Y-78028800D01*
X160653470Y-77216000D01*
X160607999Y-76987400D01*
X160653470Y-76758800D01*
X160653470Y-75946000D01*
X160607999Y-75717400D01*
X160653470Y-75488800D01*
X160653470Y-74676000D01*
X160607999Y-74447400D01*
X160653470Y-74218800D01*
X160653470Y-73406000D01*
X160607999Y-73177400D01*
X160653470Y-72948800D01*
X160653470Y-72136000D01*
X160607999Y-71907400D01*
X160653470Y-71678800D01*
X160653470Y-70866000D01*
X160607999Y-70637400D01*
X160653470Y-70408800D01*
X160653470Y-69596000D01*
X160604187Y-69348235D01*
X160463839Y-69138191D01*
X160253795Y-68997843D01*
X160006030Y-68948560D01*
X157824170Y-68948560D01*
X157576405Y-68997843D01*
X157366361Y-69138191D01*
X157296730Y-69242400D01*
X149464947Y-69242400D01*
X149390100Y-69227512D01*
X149315253Y-69242400D01*
X149315248Y-69242400D01*
X149093563Y-69286496D01*
X148842171Y-69454471D01*
X148799771Y-69517927D01*
X147611255Y-70706444D01*
X147624988Y-70637401D01*
X147610100Y-70562554D01*
X147610100Y-67910163D01*
X147713700Y-67930770D01*
X148526500Y-67930770D01*
X148755100Y-67885299D01*
X148983700Y-67930770D01*
X149796500Y-67930770D01*
X150025100Y-67885299D01*
X150253700Y-67930770D01*
X151066500Y-67930770D01*
X151295100Y-67885299D01*
X151523700Y-67930770D01*
X152336500Y-67930770D01*
X152565100Y-67885299D01*
X152793700Y-67930770D01*
X153606500Y-67930770D01*
X153835100Y-67885299D01*
X154063700Y-67930770D01*
X154876500Y-67930770D01*
X155105100Y-67885299D01*
X155333700Y-67930770D01*
X156146500Y-67930770D01*
X156390332Y-67882269D01*
X156477390Y-67918330D01*
X156724350Y-67918330D01*
X156883100Y-67759580D01*
X156883100Y-66319400D01*
X157137100Y-66319400D01*
X157137100Y-67759580D01*
X157295850Y-67918330D01*
X157542810Y-67918330D01*
X157776199Y-67821657D01*
X157954827Y-67643028D01*
X158051500Y-67409639D01*
X158051500Y-66478150D01*
X157892750Y-66319400D01*
X157137100Y-66319400D01*
X156883100Y-66319400D01*
X156863100Y-66319400D01*
X156863100Y-66065400D01*
X156883100Y-66065400D01*
X156883100Y-64625220D01*
X157137100Y-64625220D01*
X157137100Y-66065400D01*
X157892750Y-66065400D01*
X158051500Y-65906650D01*
X158051500Y-64975161D01*
X157954827Y-64741772D01*
X157776199Y-64563143D01*
X157542810Y-64466470D01*
X157295850Y-64466470D01*
X157137100Y-64625220D01*
X156883100Y-64625220D01*
X156724350Y-64466470D01*
X156477390Y-64466470D01*
X156390332Y-64502531D01*
X156146500Y-64454030D01*
X155333700Y-64454030D01*
X155230100Y-64474637D01*
X155230100Y-61392490D01*
X163131500Y-61392490D01*
X163131500Y-62096650D01*
X163290250Y-62255400D01*
X164503100Y-62255400D01*
X164503100Y-61042550D01*
X164757100Y-61042550D01*
X164757100Y-62255400D01*
X167043100Y-62255400D01*
X167043100Y-61047931D01*
X166811073Y-60927432D01*
X166281610Y-61175579D01*
X166114629Y-61358519D01*
X166032027Y-61159101D01*
X165853398Y-60980473D01*
X165620009Y-60883800D01*
X164915850Y-60883800D01*
X164757100Y-61042550D01*
X164503100Y-61042550D01*
X164344350Y-60883800D01*
X163640191Y-60883800D01*
X163406802Y-60980473D01*
X163228173Y-61159101D01*
X163131500Y-61392490D01*
X155230100Y-61392490D01*
X155230100Y-56347201D01*
X156054902Y-55522400D01*
X163351922Y-55522400D01*
X163559475Y-55833025D01*
X164050682Y-56161239D01*
X164483844Y-56247400D01*
X164776356Y-56247400D01*
X165209518Y-56161239D01*
X165700725Y-55833025D01*
X165715196Y-55811367D01*
X165781773Y-55972098D01*
X165960401Y-56150727D01*
X166193790Y-56247400D01*
X166884350Y-56247400D01*
X167043100Y-56088650D01*
X167043100Y-54889400D01*
X167023100Y-54889400D01*
X167023100Y-54635400D01*
X167043100Y-54635400D01*
X167043100Y-53436150D01*
X166884350Y-53277400D01*
X166193790Y-53277400D01*
X165960401Y-53374073D01*
X165781773Y-53552702D01*
X165715196Y-53713433D01*
X165700725Y-53691775D01*
X165209518Y-53363561D01*
X164776356Y-53277400D01*
X164483844Y-53277400D01*
X164050682Y-53363561D01*
X163559475Y-53691775D01*
X163351922Y-54002400D01*
X155814946Y-54002400D01*
X155740099Y-53987512D01*
X155665252Y-54002400D01*
X155665248Y-54002400D01*
X155443563Y-54046496D01*
X155192171Y-54214471D01*
X155149771Y-54277927D01*
X153985628Y-55442071D01*
X153922172Y-55484471D01*
X153879772Y-55547927D01*
X153879771Y-55547928D01*
X153836370Y-55612882D01*
X153836370Y-50318670D01*
X168438831Y-50318670D01*
X168438831Y-53433105D01*
G36*
X144645100Y-82516417D02*
X144645100Y-82562598D01*
X143825630Y-83382069D01*
X143762171Y-83424471D01*
X143679170Y-83548691D01*
X143659868Y-83552531D01*
X143572810Y-83516470D01*
X143325850Y-83516470D01*
X143167100Y-83675220D01*
X143167100Y-85115400D01*
X143187100Y-85115400D01*
X143187100Y-85369400D01*
X143167100Y-85369400D01*
X143167100Y-86809580D01*
X143325850Y-86968330D01*
X143572810Y-86968330D01*
X143659868Y-86932269D01*
X143903700Y-86980770D01*
X144716500Y-86980770D01*
X144820101Y-86960163D01*
X144820100Y-91517553D01*
X144805212Y-91592400D01*
X144820100Y-91667247D01*
X144820100Y-91667251D01*
X144864196Y-91888936D01*
X145032171Y-92140329D01*
X145095630Y-92182731D01*
X149285298Y-96372400D01*
X149204117Y-96372400D01*
X148860465Y-96514745D01*
X148597445Y-96777765D01*
X148455100Y-97121417D01*
X148455100Y-97493383D01*
X148597445Y-97837035D01*
X148860465Y-98100055D01*
X149204117Y-98242400D01*
X149250299Y-98242400D01*
X149900101Y-98892203D01*
X149900100Y-106666612D01*
X149576083Y-106532400D01*
X149204117Y-106532400D01*
X148880100Y-106666612D01*
X148880100Y-100557246D01*
X148894988Y-100482399D01*
X148880100Y-100407552D01*
X148880100Y-100407548D01*
X148836004Y-100185863D01*
X148794202Y-100123302D01*
X148710429Y-99997926D01*
X148710427Y-99997924D01*
X148668029Y-99934471D01*
X148604576Y-99892073D01*
X141260100Y-92547599D01*
X141260100Y-86960163D01*
X141363700Y-86980770D01*
X142176500Y-86980770D01*
X142420332Y-86932269D01*
X142507390Y-86968330D01*
X142754350Y-86968330D01*
X142913100Y-86809580D01*
X142913100Y-85369400D01*
X142893100Y-85369400D01*
X142893100Y-85115400D01*
X142913100Y-85115400D01*
X142913100Y-83675220D01*
X142874623Y-83636743D01*
X142905100Y-83563166D01*
X142905100Y-83456400D01*
X143011866Y-83456400D01*
X143429026Y-83283607D01*
X143748307Y-82964326D01*
X143921100Y-82547166D01*
X143921100Y-82192400D01*
X144779312Y-82192400D01*
X144645100Y-82516417D01*
X144645100Y-82516417D01*
G37*
X144645100Y-82516417D02*
X144645100Y-82562598D01*
X143825630Y-83382069D01*
X143762171Y-83424471D01*
X143679170Y-83548691D01*
X143659868Y-83552531D01*
X143572810Y-83516470D01*
X143325850Y-83516470D01*
X143167100Y-83675220D01*
X143167100Y-85115400D01*
X143187100Y-85115400D01*
X143187100Y-85369400D01*
X143167100Y-85369400D01*
X143167100Y-86809580D01*
X143325850Y-86968330D01*
X143572810Y-86968330D01*
X143659868Y-86932269D01*
X143903700Y-86980770D01*
X144716500Y-86980770D01*
X144820101Y-86960163D01*
X144820100Y-91517553D01*
X144805212Y-91592400D01*
X144820100Y-91667247D01*
X144820100Y-91667251D01*
X144864196Y-91888936D01*
X145032171Y-92140329D01*
X145095630Y-92182731D01*
X149285298Y-96372400D01*
X149204117Y-96372400D01*
X148860465Y-96514745D01*
X148597445Y-96777765D01*
X148455100Y-97121417D01*
X148455100Y-97493383D01*
X148597445Y-97837035D01*
X148860465Y-98100055D01*
X149204117Y-98242400D01*
X149250299Y-98242400D01*
X149900101Y-98892203D01*
X149900100Y-106666612D01*
X149576083Y-106532400D01*
X149204117Y-106532400D01*
X148880100Y-106666612D01*
X148880100Y-100557246D01*
X148894988Y-100482399D01*
X148880100Y-100407552D01*
X148880100Y-100407548D01*
X148836004Y-100185863D01*
X148794202Y-100123302D01*
X148710429Y-99997926D01*
X148710427Y-99997924D01*
X148668029Y-99934471D01*
X148604576Y-99892073D01*
X141260100Y-92547599D01*
X141260100Y-86960163D01*
X141363700Y-86980770D01*
X142176500Y-86980770D01*
X142420332Y-86932269D01*
X142507390Y-86968330D01*
X142754350Y-86968330D01*
X142913100Y-86809580D01*
X142913100Y-85369400D01*
X142893100Y-85369400D01*
X142893100Y-85115400D01*
X142913100Y-85115400D01*
X142913100Y-83675220D01*
X142874623Y-83636743D01*
X142905100Y-83563166D01*
X142905100Y-83456400D01*
X143011866Y-83456400D01*
X143429026Y-83283607D01*
X143748307Y-82964326D01*
X143921100Y-82547166D01*
X143921100Y-82192400D01*
X144779312Y-82192400D01*
X144645100Y-82516417D01*
G36*
X130666943Y-60840165D02*
X130807291Y-61050209D01*
X131017335Y-61190557D01*
X131265100Y-61239840D01*
X132410100Y-61239840D01*
X132657865Y-61190557D01*
X132867909Y-61050209D01*
X132880100Y-61031964D01*
X132892291Y-61050209D01*
X133102335Y-61190557D01*
X133350100Y-61239840D01*
X134495100Y-61239840D01*
X134742865Y-61190557D01*
X134783830Y-61163185D01*
X134783830Y-64224734D01*
X134771365Y-64287400D01*
X134820747Y-64535660D01*
X134961375Y-64746125D01*
X135171840Y-64886753D01*
X135351055Y-64922401D01*
X135420100Y-64936135D01*
X135482766Y-64923670D01*
X140750028Y-64923670D01*
X140728700Y-64975161D01*
X140728700Y-65906650D01*
X140887450Y-66065400D01*
X141643100Y-66065400D01*
X141643100Y-66045400D01*
X141897100Y-66045400D01*
X141897100Y-66065400D01*
X141917100Y-66065400D01*
X141917100Y-66319400D01*
X141897100Y-66319400D01*
X141897100Y-67759580D01*
X142055850Y-67918330D01*
X142280101Y-67918330D01*
X142280100Y-70322597D01*
X135150359Y-77452340D01*
X135112307Y-77360474D01*
X135035100Y-77283267D01*
X135035100Y-77072533D01*
X135112307Y-76995326D01*
X135285100Y-76578166D01*
X135285100Y-76126634D01*
X135112307Y-75709474D01*
X134793026Y-75390193D01*
X134375866Y-75217400D01*
X133924334Y-75217400D01*
X133507174Y-75390193D01*
X133187893Y-75709474D01*
X133015100Y-76126634D01*
X133015100Y-76578166D01*
X133187893Y-76995326D01*
X133265101Y-77072534D01*
X133265100Y-77283267D01*
X133187893Y-77360474D01*
X133015100Y-77777634D01*
X133015100Y-78229166D01*
X133187893Y-78646326D01*
X133265100Y-78723533D01*
X133265100Y-80109357D01*
X133105866Y-80043400D01*
X132654334Y-80043400D01*
X132237174Y-80216193D01*
X132181600Y-80271767D01*
X132126026Y-80216193D01*
X131708866Y-80043400D01*
X131599679Y-80043400D01*
X129320100Y-77763822D01*
X129320100Y-73010561D01*
X129337437Y-72923400D01*
X129320100Y-72836239D01*
X129320100Y-72836235D01*
X129268752Y-72578090D01*
X129073149Y-72285351D01*
X128999256Y-72235977D01*
X127919100Y-71155822D01*
X127919100Y-71046634D01*
X127746307Y-70629474D01*
X127427026Y-70310193D01*
X127009866Y-70137400D01*
X126900679Y-70137400D01*
X126776100Y-70012822D01*
X126776100Y-69903634D01*
X126603307Y-69486474D01*
X126284026Y-69167193D01*
X125866866Y-68994400D01*
X125415334Y-68994400D01*
X124998174Y-69167193D01*
X124678893Y-69486474D01*
X124506100Y-69903634D01*
X124506100Y-70355166D01*
X124678893Y-70772326D01*
X124998174Y-71091607D01*
X125415334Y-71264400D01*
X125524522Y-71264400D01*
X125649100Y-71388979D01*
X125649100Y-71498166D01*
X125821893Y-71915326D01*
X126141174Y-72234607D01*
X126558334Y-72407400D01*
X126667522Y-72407400D01*
X127550101Y-73289980D01*
X127550101Y-75027599D01*
X126195100Y-73672599D01*
X126195100Y-73626417D01*
X126052755Y-73282765D01*
X125789735Y-73019745D01*
X125446083Y-72877400D01*
X125074117Y-72877400D01*
X124730465Y-73019745D01*
X124467445Y-73282765D01*
X124325100Y-73626417D01*
X124325100Y-73998383D01*
X124467445Y-74342035D01*
X124730465Y-74605055D01*
X125074117Y-74747400D01*
X125120299Y-74747400D01*
X126405101Y-76032203D01*
X126405100Y-94202598D01*
X122040431Y-89837930D01*
X121998029Y-89774471D01*
X121746637Y-89606496D01*
X121524952Y-89562400D01*
X121524947Y-89562400D01*
X121450100Y-89547512D01*
X121375253Y-89562400D01*
X120204635Y-89562400D01*
X119990530Y-89241970D01*
X119706819Y-89052400D01*
X119990530Y-88862830D01*
X120204635Y-88542400D01*
X120740253Y-88542400D01*
X120815100Y-88557288D01*
X120889947Y-88542400D01*
X120889952Y-88542400D01*
X121111637Y-88498304D01*
X121363029Y-88330329D01*
X121405431Y-88266870D01*
X122569573Y-87102729D01*
X122633029Y-87060329D01*
X122801004Y-86808937D01*
X122845100Y-86587252D01*
X122845100Y-86587248D01*
X122859988Y-86512401D01*
X122845100Y-86437554D01*
X122845100Y-85983978D01*
X124125100Y-87263979D01*
X124125100Y-87373166D01*
X124294610Y-87782400D01*
X124125100Y-88191634D01*
X124125100Y-88643166D01*
X124297893Y-89060326D01*
X124617174Y-89379607D01*
X125034334Y-89552400D01*
X125485866Y-89552400D01*
X125903026Y-89379607D01*
X126222307Y-89060326D01*
X126395100Y-88643166D01*
X126395100Y-88191634D01*
X126225590Y-87782400D01*
X126395100Y-87373166D01*
X126395100Y-86921634D01*
X126222307Y-86504474D01*
X125903026Y-86185193D01*
X125485866Y-86012400D01*
X125376679Y-86012400D01*
X124240100Y-84875822D01*
X124240100Y-68463978D01*
X126225928Y-66478150D01*
X140728700Y-66478150D01*
X140728700Y-67409639D01*
X140825373Y-67643028D01*
X141004001Y-67821657D01*
X141237390Y-67918330D01*
X141484350Y-67918330D01*
X141643100Y-67759580D01*
X141643100Y-66319400D01*
X140887450Y-66319400D01*
X140728700Y-66478150D01*
X126225928Y-66478150D01*
X126646679Y-66057400D01*
X126755866Y-66057400D01*
X127165100Y-65887890D01*
X127574334Y-66057400D01*
X128025866Y-66057400D01*
X128443026Y-65884607D01*
X128762307Y-65565326D01*
X128935100Y-65148166D01*
X128935100Y-64696634D01*
X128762307Y-64279474D01*
X128443026Y-63960193D01*
X128025866Y-63787400D01*
X127574334Y-63787400D01*
X127165100Y-63956910D01*
X126811752Y-63810549D01*
X129327073Y-61295229D01*
X129390529Y-61252829D01*
X129399208Y-61239840D01*
X129415100Y-61239840D01*
X129662865Y-61190557D01*
X129872909Y-61050209D01*
X130013257Y-60840165D01*
X130060551Y-60602400D01*
X130619649Y-60602400D01*
X130666943Y-60840165D01*
X130666943Y-60840165D01*
G37*
X130666943Y-60840165D02*
X130807291Y-61050209D01*
X131017335Y-61190557D01*
X131265100Y-61239840D01*
X132410100Y-61239840D01*
X132657865Y-61190557D01*
X132867909Y-61050209D01*
X132880100Y-61031964D01*
X132892291Y-61050209D01*
X133102335Y-61190557D01*
X133350100Y-61239840D01*
X134495100Y-61239840D01*
X134742865Y-61190557D01*
X134783830Y-61163185D01*
X134783830Y-64224734D01*
X134771365Y-64287400D01*
X134820747Y-64535660D01*
X134961375Y-64746125D01*
X135171840Y-64886753D01*
X135351055Y-64922401D01*
X135420100Y-64936135D01*
X135482766Y-64923670D01*
X140750028Y-64923670D01*
X140728700Y-64975161D01*
X140728700Y-65906650D01*
X140887450Y-66065400D01*
X141643100Y-66065400D01*
X141643100Y-66045400D01*
X141897100Y-66045400D01*
X141897100Y-66065400D01*
X141917100Y-66065400D01*
X141917100Y-66319400D01*
X141897100Y-66319400D01*
X141897100Y-67759580D01*
X142055850Y-67918330D01*
X142280101Y-67918330D01*
X142280100Y-70322597D01*
X135150359Y-77452340D01*
X135112307Y-77360474D01*
X135035100Y-77283267D01*
X135035100Y-77072533D01*
X135112307Y-76995326D01*
X135285100Y-76578166D01*
X135285100Y-76126634D01*
X135112307Y-75709474D01*
X134793026Y-75390193D01*
X134375866Y-75217400D01*
X133924334Y-75217400D01*
X133507174Y-75390193D01*
X133187893Y-75709474D01*
X133015100Y-76126634D01*
X133015100Y-76578166D01*
X133187893Y-76995326D01*
X133265101Y-77072534D01*
X133265100Y-77283267D01*
X133187893Y-77360474D01*
X133015100Y-77777634D01*
X133015100Y-78229166D01*
X133187893Y-78646326D01*
X133265100Y-78723533D01*
X133265100Y-80109357D01*
X133105866Y-80043400D01*
X132654334Y-80043400D01*
X132237174Y-80216193D01*
X132181600Y-80271767D01*
X132126026Y-80216193D01*
X131708866Y-80043400D01*
X131599679Y-80043400D01*
X129320100Y-77763822D01*
X129320100Y-73010561D01*
X129337437Y-72923400D01*
X129320100Y-72836239D01*
X129320100Y-72836235D01*
X129268752Y-72578090D01*
X129073149Y-72285351D01*
X128999256Y-72235977D01*
X127919100Y-71155822D01*
X127919100Y-71046634D01*
X127746307Y-70629474D01*
X127427026Y-70310193D01*
X127009866Y-70137400D01*
X126900679Y-70137400D01*
X126776100Y-70012822D01*
X126776100Y-69903634D01*
X126603307Y-69486474D01*
X126284026Y-69167193D01*
X125866866Y-68994400D01*
X125415334Y-68994400D01*
X124998174Y-69167193D01*
X124678893Y-69486474D01*
X124506100Y-69903634D01*
X124506100Y-70355166D01*
X124678893Y-70772326D01*
X124998174Y-71091607D01*
X125415334Y-71264400D01*
X125524522Y-71264400D01*
X125649100Y-71388979D01*
X125649100Y-71498166D01*
X125821893Y-71915326D01*
X126141174Y-72234607D01*
X126558334Y-72407400D01*
X126667522Y-72407400D01*
X127550101Y-73289980D01*
X127550101Y-75027599D01*
X126195100Y-73672599D01*
X126195100Y-73626417D01*
X126052755Y-73282765D01*
X125789735Y-73019745D01*
X125446083Y-72877400D01*
X125074117Y-72877400D01*
X124730465Y-73019745D01*
X124467445Y-73282765D01*
X124325100Y-73626417D01*
X124325100Y-73998383D01*
X124467445Y-74342035D01*
X124730465Y-74605055D01*
X125074117Y-74747400D01*
X125120299Y-74747400D01*
X126405101Y-76032203D01*
X126405100Y-94202598D01*
X122040431Y-89837930D01*
X121998029Y-89774471D01*
X121746637Y-89606496D01*
X121524952Y-89562400D01*
X121524947Y-89562400D01*
X121450100Y-89547512D01*
X121375253Y-89562400D01*
X120204635Y-89562400D01*
X119990530Y-89241970D01*
X119706819Y-89052400D01*
X119990530Y-88862830D01*
X120204635Y-88542400D01*
X120740253Y-88542400D01*
X120815100Y-88557288D01*
X120889947Y-88542400D01*
X120889952Y-88542400D01*
X121111637Y-88498304D01*
X121363029Y-88330329D01*
X121405431Y-88266870D01*
X122569573Y-87102729D01*
X122633029Y-87060329D01*
X122801004Y-86808937D01*
X122845100Y-86587252D01*
X122845100Y-86587248D01*
X122859988Y-86512401D01*
X122845100Y-86437554D01*
X122845100Y-85983978D01*
X124125100Y-87263979D01*
X124125100Y-87373166D01*
X124294610Y-87782400D01*
X124125100Y-88191634D01*
X124125100Y-88643166D01*
X124297893Y-89060326D01*
X124617174Y-89379607D01*
X125034334Y-89552400D01*
X125485866Y-89552400D01*
X125903026Y-89379607D01*
X126222307Y-89060326D01*
X126395100Y-88643166D01*
X126395100Y-88191634D01*
X126225590Y-87782400D01*
X126395100Y-87373166D01*
X126395100Y-86921634D01*
X126222307Y-86504474D01*
X125903026Y-86185193D01*
X125485866Y-86012400D01*
X125376679Y-86012400D01*
X124240100Y-84875822D01*
X124240100Y-68463978D01*
X126225928Y-66478150D01*
X140728700Y-66478150D01*
X140728700Y-67409639D01*
X140825373Y-67643028D01*
X141004001Y-67821657D01*
X141237390Y-67918330D01*
X141484350Y-67918330D01*
X141643100Y-67759580D01*
X141643100Y-66319400D01*
X140887450Y-66319400D01*
X140728700Y-66478150D01*
X126225928Y-66478150D01*
X126646679Y-66057400D01*
X126755866Y-66057400D01*
X127165100Y-65887890D01*
X127574334Y-66057400D01*
X128025866Y-66057400D01*
X128443026Y-65884607D01*
X128762307Y-65565326D01*
X128935100Y-65148166D01*
X128935100Y-64696634D01*
X128762307Y-64279474D01*
X128443026Y-63960193D01*
X128025866Y-63787400D01*
X127574334Y-63787400D01*
X127165100Y-63956910D01*
X126811752Y-63810549D01*
X129327073Y-61295229D01*
X129390529Y-61252829D01*
X129399208Y-61239840D01*
X129415100Y-61239840D01*
X129662865Y-61190557D01*
X129872909Y-61050209D01*
X130013257Y-60840165D01*
X130060551Y-60602400D01*
X130619649Y-60602400D01*
X130666943Y-60840165D01*
G36*
X132120100Y-51267203D02*
X132120101Y-55470109D01*
X132087445Y-55502765D01*
X131945100Y-55846417D01*
X131945100Y-56218383D01*
X132087445Y-56562035D01*
X132350465Y-56825055D01*
X132694117Y-56967400D01*
X133066083Y-56967400D01*
X133162600Y-56927421D01*
X133162601Y-58482256D01*
X133102335Y-58494243D01*
X132892291Y-58634591D01*
X132880100Y-58652836D01*
X132867909Y-58634591D01*
X132657865Y-58494243D01*
X132410100Y-58444960D01*
X131265100Y-58444960D01*
X131017335Y-58494243D01*
X130807291Y-58634591D01*
X130666943Y-58844635D01*
X130619649Y-59082400D01*
X130060551Y-59082400D01*
X130013257Y-58844635D01*
X129872909Y-58634591D01*
X129662865Y-58494243D01*
X129415100Y-58444960D01*
X128270100Y-58444960D01*
X128022335Y-58494243D01*
X127812291Y-58634591D01*
X127795478Y-58659753D01*
X127689798Y-58554073D01*
X127456409Y-58457400D01*
X127043350Y-58457400D01*
X126884600Y-58616150D01*
X126884600Y-59715400D01*
X126904600Y-59715400D01*
X126904600Y-59969400D01*
X126884600Y-59969400D01*
X126884600Y-61068650D01*
X127043350Y-61227400D01*
X127245298Y-61227400D01*
X124945299Y-63527400D01*
X123429946Y-63527400D01*
X123355099Y-63512512D01*
X123280252Y-63527400D01*
X123280248Y-63527400D01*
X123058563Y-63571496D01*
X122807171Y-63739471D01*
X122764771Y-63802927D01*
X122210100Y-64357598D01*
X122210100Y-62062201D01*
X124144151Y-60128150D01*
X125550100Y-60128150D01*
X125550100Y-60718710D01*
X125646773Y-60952099D01*
X125825402Y-61130727D01*
X126058791Y-61227400D01*
X126471850Y-61227400D01*
X126630600Y-61068650D01*
X126630600Y-59969400D01*
X125708850Y-59969400D01*
X125550100Y-60128150D01*
X124144151Y-60128150D01*
X125306211Y-58966090D01*
X125550100Y-58966090D01*
X125550100Y-59556650D01*
X125708850Y-59715400D01*
X126630600Y-59715400D01*
X126630600Y-58616150D01*
X126471850Y-58457400D01*
X126058791Y-58457400D01*
X125825402Y-58554073D01*
X125646773Y-58732701D01*
X125550100Y-58966090D01*
X125306211Y-58966090D01*
X128057073Y-56215229D01*
X128120529Y-56172829D01*
X128288504Y-55921437D01*
X128332600Y-55699752D01*
X128332600Y-55699748D01*
X128347488Y-55624900D01*
X128332600Y-55550052D01*
X128332600Y-54852544D01*
X128392865Y-54840557D01*
X128602909Y-54700209D01*
X128743257Y-54490165D01*
X128792540Y-54242400D01*
X128792540Y-52742400D01*
X128743257Y-52494635D01*
X128602909Y-52284591D01*
X128392865Y-52144243D01*
X128240100Y-52113856D01*
X128240100Y-51655563D01*
X128337909Y-51590209D01*
X128478257Y-51380165D01*
X128527540Y-51132400D01*
X128527540Y-50232400D01*
X128478257Y-49984635D01*
X128337909Y-49774591D01*
X128127865Y-49634243D01*
X127880100Y-49584960D01*
X127391416Y-49584960D01*
X127528257Y-49380165D01*
X127569584Y-49172400D01*
X130025299Y-49172400D01*
X132120100Y-51267203D01*
X132120100Y-51267203D01*
G37*
X132120100Y-51267203D02*
X132120101Y-55470109D01*
X132087445Y-55502765D01*
X131945100Y-55846417D01*
X131945100Y-56218383D01*
X132087445Y-56562035D01*
X132350465Y-56825055D01*
X132694117Y-56967400D01*
X133066083Y-56967400D01*
X133162600Y-56927421D01*
X133162601Y-58482256D01*
X133102335Y-58494243D01*
X132892291Y-58634591D01*
X132880100Y-58652836D01*
X132867909Y-58634591D01*
X132657865Y-58494243D01*
X132410100Y-58444960D01*
X131265100Y-58444960D01*
X131017335Y-58494243D01*
X130807291Y-58634591D01*
X130666943Y-58844635D01*
X130619649Y-59082400D01*
X130060551Y-59082400D01*
X130013257Y-58844635D01*
X129872909Y-58634591D01*
X129662865Y-58494243D01*
X129415100Y-58444960D01*
X128270100Y-58444960D01*
X128022335Y-58494243D01*
X127812291Y-58634591D01*
X127795478Y-58659753D01*
X127689798Y-58554073D01*
X127456409Y-58457400D01*
X127043350Y-58457400D01*
X126884600Y-58616150D01*
X126884600Y-59715400D01*
X126904600Y-59715400D01*
X126904600Y-59969400D01*
X126884600Y-59969400D01*
X126884600Y-61068650D01*
X127043350Y-61227400D01*
X127245298Y-61227400D01*
X124945299Y-63527400D01*
X123429946Y-63527400D01*
X123355099Y-63512512D01*
X123280252Y-63527400D01*
X123280248Y-63527400D01*
X123058563Y-63571496D01*
X122807171Y-63739471D01*
X122764771Y-63802927D01*
X122210100Y-64357598D01*
X122210100Y-62062201D01*
X124144151Y-60128150D01*
X125550100Y-60128150D01*
X125550100Y-60718710D01*
X125646773Y-60952099D01*
X125825402Y-61130727D01*
X126058791Y-61227400D01*
X126471850Y-61227400D01*
X126630600Y-61068650D01*
X126630600Y-59969400D01*
X125708850Y-59969400D01*
X125550100Y-60128150D01*
X124144151Y-60128150D01*
X125306211Y-58966090D01*
X125550100Y-58966090D01*
X125550100Y-59556650D01*
X125708850Y-59715400D01*
X126630600Y-59715400D01*
X126630600Y-58616150D01*
X126471850Y-58457400D01*
X126058791Y-58457400D01*
X125825402Y-58554073D01*
X125646773Y-58732701D01*
X125550100Y-58966090D01*
X125306211Y-58966090D01*
X128057073Y-56215229D01*
X128120529Y-56172829D01*
X128288504Y-55921437D01*
X128332600Y-55699752D01*
X128332600Y-55699748D01*
X128347488Y-55624900D01*
X128332600Y-55550052D01*
X128332600Y-54852544D01*
X128392865Y-54840557D01*
X128602909Y-54700209D01*
X128743257Y-54490165D01*
X128792540Y-54242400D01*
X128792540Y-52742400D01*
X128743257Y-52494635D01*
X128602909Y-52284591D01*
X128392865Y-52144243D01*
X128240100Y-52113856D01*
X128240100Y-51655563D01*
X128337909Y-51590209D01*
X128478257Y-51380165D01*
X128527540Y-51132400D01*
X128527540Y-50232400D01*
X128478257Y-49984635D01*
X128337909Y-49774591D01*
X128127865Y-49634243D01*
X127880100Y-49584960D01*
X127391416Y-49584960D01*
X127528257Y-49380165D01*
X127569584Y-49172400D01*
X130025299Y-49172400D01*
X132120100Y-51267203D01*
G36*
X134783830Y-55343840D02*
X134679735Y-55239745D01*
X134336083Y-55097400D01*
X133964117Y-55097400D01*
X133640100Y-55231612D01*
X133640100Y-51027246D01*
X133654988Y-50952399D01*
X133640100Y-50877552D01*
X133640100Y-50877548D01*
X133596004Y-50655863D01*
X133554202Y-50593302D01*
X133470429Y-50467926D01*
X133470427Y-50467924D01*
X133428029Y-50404471D01*
X133364576Y-50362073D01*
X130930431Y-47927930D01*
X130888029Y-47864471D01*
X130636637Y-47696496D01*
X130414952Y-47652400D01*
X130414947Y-47652400D01*
X130340100Y-47637512D01*
X130265253Y-47652400D01*
X127205039Y-47652400D01*
X127177865Y-47634243D01*
X126930100Y-47584960D01*
X126130100Y-47584960D01*
X125882335Y-47634243D01*
X125672291Y-47774591D01*
X125601925Y-47879900D01*
X124080244Y-47879900D01*
X124068257Y-47819635D01*
X123927909Y-47609591D01*
X123717865Y-47469243D01*
X123470100Y-47419960D01*
X121970100Y-47419960D01*
X121722335Y-47469243D01*
X121512291Y-47609591D01*
X121371943Y-47819635D01*
X121322660Y-48067400D01*
X121322660Y-49212400D01*
X121371943Y-49460165D01*
X121512291Y-49670209D01*
X121530536Y-49682400D01*
X121512291Y-49694591D01*
X121371943Y-49904635D01*
X121322660Y-50152400D01*
X121322660Y-50870761D01*
X120250945Y-51942477D01*
X120177052Y-51991851D01*
X120127678Y-52065744D01*
X120127676Y-52065746D01*
X119981448Y-52284591D01*
X119912763Y-52629900D01*
X119930101Y-52717066D01*
X119930100Y-61319659D01*
X119798590Y-61175579D01*
X119269127Y-60927432D01*
X119037100Y-61047931D01*
X119037100Y-62255400D01*
X119057100Y-62255400D01*
X119057100Y-62509400D01*
X119037100Y-62509400D01*
X119037100Y-62529400D01*
X118783100Y-62529400D01*
X118783100Y-62509400D01*
X116497100Y-62509400D01*
X116497100Y-62529400D01*
X116243100Y-62529400D01*
X116243100Y-62509400D01*
X116223100Y-62509400D01*
X116223100Y-62255400D01*
X116243100Y-62255400D01*
X116243100Y-61042550D01*
X116497100Y-61042550D01*
X116497100Y-62255400D01*
X118783100Y-62255400D01*
X118783100Y-61047931D01*
X118551073Y-60927432D01*
X118021610Y-61175579D01*
X117854629Y-61358519D01*
X117772027Y-61159101D01*
X117593398Y-60980473D01*
X117360009Y-60883800D01*
X116655850Y-60883800D01*
X116497100Y-61042550D01*
X116243100Y-61042550D01*
X116084350Y-60883800D01*
X115380191Y-60883800D01*
X115146802Y-60980473D01*
X115101370Y-61025905D01*
X115101370Y-49057110D01*
X115112323Y-48698611D01*
X115144254Y-48351106D01*
X115197338Y-48006212D01*
X115271379Y-47665201D01*
X115366100Y-47329341D01*
X115481151Y-46999890D01*
X115616101Y-46678070D01*
X115770438Y-46365106D01*
X115943603Y-46062130D01*
X116134923Y-45770320D01*
X116343726Y-45490697D01*
X116569194Y-45224364D01*
X116810497Y-44972296D01*
X117066752Y-44735415D01*
X117336979Y-44514631D01*
X117620188Y-44310749D01*
X117915315Y-44124538D01*
X118221246Y-43956699D01*
X118536872Y-43807840D01*
X118860988Y-43678530D01*
X119192401Y-43569247D01*
X119529856Y-43480402D01*
X119872113Y-43412322D01*
X120217884Y-43365265D01*
X120568638Y-43339200D01*
X120822061Y-43333670D01*
X134783831Y-43333670D01*
X134783830Y-55343840D01*
X134783830Y-55343840D01*
G37*
X134783830Y-55343840D02*
X134679735Y-55239745D01*
X134336083Y-55097400D01*
X133964117Y-55097400D01*
X133640100Y-55231612D01*
X133640100Y-51027246D01*
X133654988Y-50952399D01*
X133640100Y-50877552D01*
X133640100Y-50877548D01*
X133596004Y-50655863D01*
X133554202Y-50593302D01*
X133470429Y-50467926D01*
X133470427Y-50467924D01*
X133428029Y-50404471D01*
X133364576Y-50362073D01*
X130930431Y-47927930D01*
X130888029Y-47864471D01*
X130636637Y-47696496D01*
X130414952Y-47652400D01*
X130414947Y-47652400D01*
X130340100Y-47637512D01*
X130265253Y-47652400D01*
X127205039Y-47652400D01*
X127177865Y-47634243D01*
X126930100Y-47584960D01*
X126130100Y-47584960D01*
X125882335Y-47634243D01*
X125672291Y-47774591D01*
X125601925Y-47879900D01*
X124080244Y-47879900D01*
X124068257Y-47819635D01*
X123927909Y-47609591D01*
X123717865Y-47469243D01*
X123470100Y-47419960D01*
X121970100Y-47419960D01*
X121722335Y-47469243D01*
X121512291Y-47609591D01*
X121371943Y-47819635D01*
X121322660Y-48067400D01*
X121322660Y-49212400D01*
X121371943Y-49460165D01*
X121512291Y-49670209D01*
X121530536Y-49682400D01*
X121512291Y-49694591D01*
X121371943Y-49904635D01*
X121322660Y-50152400D01*
X121322660Y-50870761D01*
X120250945Y-51942477D01*
X120177052Y-51991851D01*
X120127678Y-52065744D01*
X120127676Y-52065746D01*
X119981448Y-52284591D01*
X119912763Y-52629900D01*
X119930101Y-52717066D01*
X119930100Y-61319659D01*
X119798590Y-61175579D01*
X119269127Y-60927432D01*
X119037100Y-61047931D01*
X119037100Y-62255400D01*
X119057100Y-62255400D01*
X119057100Y-62509400D01*
X119037100Y-62509400D01*
X119037100Y-62529400D01*
X118783100Y-62529400D01*
X118783100Y-62509400D01*
X116497100Y-62509400D01*
X116497100Y-62529400D01*
X116243100Y-62529400D01*
X116243100Y-62509400D01*
X116223100Y-62509400D01*
X116223100Y-62255400D01*
X116243100Y-62255400D01*
X116243100Y-61042550D01*
X116497100Y-61042550D01*
X116497100Y-62255400D01*
X118783100Y-62255400D01*
X118783100Y-61047931D01*
X118551073Y-60927432D01*
X118021610Y-61175579D01*
X117854629Y-61358519D01*
X117772027Y-61159101D01*
X117593398Y-60980473D01*
X117360009Y-60883800D01*
X116655850Y-60883800D01*
X116497100Y-61042550D01*
X116243100Y-61042550D01*
X116084350Y-60883800D01*
X115380191Y-60883800D01*
X115146802Y-60980473D01*
X115101370Y-61025905D01*
X115101370Y-49057110D01*
X115112323Y-48698611D01*
X115144254Y-48351106D01*
X115197338Y-48006212D01*
X115271379Y-47665201D01*
X115366100Y-47329341D01*
X115481151Y-46999890D01*
X115616101Y-46678070D01*
X115770438Y-46365106D01*
X115943603Y-46062130D01*
X116134923Y-45770320D01*
X116343726Y-45490697D01*
X116569194Y-45224364D01*
X116810497Y-44972296D01*
X117066752Y-44735415D01*
X117336979Y-44514631D01*
X117620188Y-44310749D01*
X117915315Y-44124538D01*
X118221246Y-43956699D01*
X118536872Y-43807840D01*
X118860988Y-43678530D01*
X119192401Y-43569247D01*
X119529856Y-43480402D01*
X119872113Y-43412322D01*
X120217884Y-43365265D01*
X120568638Y-43339200D01*
X120822061Y-43333670D01*
X134783831Y-43333670D01*
X134783830Y-55343840D01*
M02*
