M48
;DRILL file {KiCad 5.0.0-rc1-44a33f2~62~ubuntu16.04.1} date Sun Apr  1 18:35:08 2018
;FORMAT={3:3/ absolute / metric / suppress leading zeros}
FMAT,2
METRIC,TZ
T1C0.400
T2C0.600
T3C0.900
T4C1.000
T5C1.016
T6C1.200
%
G90
G05
M71
T1
X117005Y-120167
X117640Y-91592
X118275Y-44602
X118275Y-45872
X118275Y-47142
X118275Y-48412
X118275Y-49682
X118275Y-50952
X118275Y-52222
X118275Y-53492
X118275Y-54762
X118275Y-56032
X118275Y-57302
X118275Y-58572
X118275Y-59842
X118275Y-120167
X118275Y-121437
X119545Y-44602
X119545Y-47142
X119545Y-120167
X119545Y-121437
X119545Y-122707
X120815Y-44602
X120815Y-47142
X120815Y-98577
X120815Y-99847
X120815Y-101117
X120815Y-102387
X120815Y-103657
X120815Y-104927
X120815Y-106197
X120815Y-107467
X120815Y-108737
X120815Y-110007
X120815Y-111277
X120815Y-112547
X120815Y-113817
X120815Y-115087
X120815Y-116357
X120815Y-117627
X120815Y-118897
X120815Y-120167
X120815Y-121437
X120815Y-122707
X120815Y-123977
X122085Y-44602
X122085Y-47142
X122085Y-98577
X122085Y-108737
X122720Y-125247
X123355Y-44602
X123355Y-47142
X123355Y-98577
X123355Y-108737
X123990Y-61747
X123990Y-63017
X123990Y-125247
X123990Y-126517
X124625Y-44602
X124625Y-47142
X124625Y-60477
X125260Y-61747
X125260Y-73812
X125260Y-99847
X125260Y-101117
X125260Y-102387
X125260Y-103657
X125260Y-104927
X125260Y-106197
X125260Y-107467
X125260Y-108737
X125260Y-125247
X125260Y-126517
X125260Y-127787
X125514Y-98196
X125895Y-44602
X125895Y-47142
X126530Y-125247
X126530Y-126517
X126530Y-127787
X127165Y-44602
X127165Y-47142
X127546Y-100228
X127800Y-102387
X127800Y-103657
X127800Y-104927
X127800Y-106197
X127800Y-107467
X127800Y-108737
X127800Y-115722
X127800Y-116992
X127800Y-118262
X127800Y-119532
X128054Y-97180
X128435Y-44602
X128435Y-47142
X128435Y-94132
X129070Y-63017
X129070Y-83337
X129070Y-84607
X129070Y-85877
X129070Y-87147
X129070Y-88417
X129070Y-89687
X129070Y-94767
X129070Y-115722
X129070Y-116992
X129070Y-118262
X129705Y-44602
X129705Y-47142
X129705Y-50952
X129705Y-52222
X129705Y-53492
X129705Y-54762
X129705Y-56032
X129705Y-57302
X129705Y-95402
X130340Y-61747
X130340Y-63017
X130340Y-83337
X130340Y-84607
X130340Y-85877
X130340Y-87147
X130340Y-88417
X130340Y-89687
X130340Y-90957
X130340Y-96037
X130340Y-97307
X130340Y-104927
X130340Y-106197
X130340Y-107467
X130340Y-108737
X130340Y-115722
X130340Y-116992
X130340Y-118262
X130975Y-44602
X130975Y-47142
X130975Y-50952
X130975Y-52222
X130975Y-53492
X130975Y-54762
X130975Y-56032
X130975Y-57302
X131610Y-61747
X131610Y-63017
X131610Y-84607
X131610Y-85877
X131610Y-87147
X131610Y-88417
X131610Y-89687
X131610Y-90957
X131610Y-92227
X131610Y-106197
X131610Y-107467
X131610Y-108737
X131610Y-115722
X131610Y-116992
X131610Y-118262
X132245Y-44602
X132245Y-47142
X132880Y-56032
X132880Y-61747
X132880Y-63017
X132880Y-85877
X132880Y-87147
X132880Y-88417
X132880Y-89687
X132880Y-90957
X132880Y-92227
X132880Y-93497
X132880Y-107467
X132880Y-108737
X133515Y-44602
X133515Y-45872
X133515Y-47142
X134150Y-56032
X136055Y-115722
X136055Y-116992
X136055Y-120167
X136055Y-121437
X136055Y-122707
X136055Y-123977
X136055Y-125247
X136690Y-101117
X137325Y-120167
X137325Y-121437
X137325Y-122707
X137325Y-123977
X137325Y-125247
X137960Y-65557
X138595Y-66192
X138595Y-120167
X138595Y-121437
X138595Y-122707
X138595Y-123977
X138595Y-125247
X139230Y-66827
X139230Y-105562
X139230Y-106832
X139230Y-108102
X139230Y-114452
X139230Y-115722
X139865Y-67462
X139865Y-121437
X139865Y-122707
X139865Y-123977
X139865Y-125247
X140500Y-68097
X140500Y-99847
X140500Y-105562
X140500Y-106832
X140500Y-108102
X140500Y-115087
X140500Y-116357
X141135Y-68732
X141135Y-78257
X141770Y-87782
X141770Y-89052
X141770Y-90322
X141770Y-106832
X141770Y-108102
X141770Y-116992
X142405Y-103022
X143040Y-87782
X143040Y-89052
X143040Y-90322
X143040Y-91592
X143040Y-92862
X143040Y-116992
X143040Y-118262
X143675Y-76987
X144310Y-87782
X144310Y-89052
X144310Y-90322
X144310Y-91592
X144310Y-92862
X144310Y-94132
X144310Y-116992
X144310Y-118262
X144310Y-125247
X145580Y-82702
X145580Y-116992
X145580Y-118262
X145580Y-121437
X145580Y-122707
X145580Y-123977
X145580Y-125247
X146850Y-87782
X146850Y-116992
X146850Y-118262
X146850Y-125247
X147485Y-75717
X147485Y-76987
X147485Y-78257
X147485Y-79527
X148120Y-68732
X148120Y-116992
X148120Y-118262
X148755Y-74447
X148755Y-80797
X149390Y-68732
X149390Y-97307
X149390Y-100482
X149390Y-101752
X149390Y-103022
X149390Y-104292
X149390Y-105562
X149390Y-107467
X149390Y-116992
X149390Y-118262
X149390Y-125247
X150025Y-73177
X150025Y-82067
X150660Y-68732
X150660Y-116992
X150660Y-118262
X150660Y-121437
X150660Y-122707
X150660Y-123977
X150660Y-125247
X151295Y-73177
X151295Y-82067
X151930Y-68732
X151930Y-116992
X151930Y-118262
X152565Y-73177
X152565Y-82067
X152565Y-89052
X152565Y-107467
X153200Y-68732
X153835Y-73177
X153835Y-74447
X153835Y-75717
X153835Y-76987
X153835Y-78257
X153835Y-79527
X153835Y-80797
X153835Y-82067
X153835Y-87782
X154470Y-68732
X155105Y-51587
X155105Y-87782
X155740Y-68732
X156375Y-51587
X156375Y-56667
X156375Y-57937
X156375Y-59207
X156375Y-60477
X156375Y-61747
X156375Y-63017
X156375Y-87782
X157645Y-51587
X157645Y-56667
X157645Y-60477
X157645Y-63017
X157645Y-87782
X158280Y-87147
X158280Y-88417
X158915Y-51587
X158915Y-56667
X158915Y-60477
X158915Y-63017
X158915Y-116992
X158915Y-118262
X160185Y-51587
X160185Y-56667
X160185Y-60477
X160185Y-63017
X160185Y-64287
X160185Y-65557
X160185Y-66827
X160185Y-68097
X160185Y-103657
X160185Y-104927
X160185Y-106197
X160185Y-107467
X160185Y-108737
X160185Y-116992
X160185Y-118262
X160185Y-123977
X160185Y-125247
X160185Y-126517
X161455Y-51587
X161455Y-56667
X161455Y-60477
X161455Y-63017
X161455Y-64287
X161455Y-65557
X161455Y-66827
X161455Y-68097
X161455Y-103657
X161455Y-104927
X161455Y-106197
X161455Y-107467
X161455Y-108737
X161455Y-110007
X161455Y-111277
X161455Y-112547
X161455Y-113817
X161455Y-115087
X161455Y-116992
X161455Y-118262
X161455Y-123977
X161455Y-125247
X162725Y-51587
X162725Y-56667
X162725Y-60477
X162725Y-61747
X162725Y-63017
X162725Y-69367
X162725Y-70637
X162725Y-71907
X162725Y-73177
X162725Y-74447
X162725Y-75717
X162725Y-76987
X162725Y-78257
X162725Y-79527
X162725Y-80797
X162725Y-82067
X162725Y-83337
X162725Y-84607
X162725Y-85877
X162725Y-87147
X162725Y-88417
X162725Y-89687
X162725Y-90957
X162725Y-92227
X162725Y-93497
X162725Y-94767
X162725Y-96037
X162725Y-97307
X162725Y-98577
X162725Y-99847
X162725Y-101117
X162725Y-102387
X162725Y-103657
X162725Y-104927
X162725Y-106197
X162725Y-107467
X162725Y-108737
X162725Y-110007
X162725Y-111277
X162725Y-112547
X162725Y-113817
X162725Y-115087
X162725Y-116357
X162725Y-117627
X162725Y-118897
X162725Y-120167
X162725Y-121437
X162725Y-122707
X162725Y-123977
X162725Y-125247
X163995Y-51587
X163995Y-56667
X163995Y-60477
X163995Y-120167
X163995Y-121437
X163995Y-122707
X163995Y-123977
X165265Y-51587
X165265Y-56667
X165265Y-60477
X165265Y-120167
X165265Y-121437
X165265Y-122707
X166535Y-51587
X166535Y-56667
X166535Y-60477
X166535Y-120167
X166535Y-121437
X167805Y-51587
X167805Y-56667
X167805Y-57937
X167805Y-59207
X167805Y-60477
T2
X123355Y-53492
X125260Y-87147
X125260Y-88417
X125641Y-70129
X126530Y-64922
X126784Y-71272
X127800Y-64922
X131483Y-81178
X132880Y-81178
X134150Y-76352
X134150Y-78003
X134150Y-82448
X134150Y-84099
X134150Y-116992
X134150Y-118516
X141770Y-83337
X142786Y-82321
T3
X155740Y-90322
X155740Y-92862
X155740Y-95402
X155740Y-97942
X155740Y-100482
X155740Y-103022
T4
X126530Y-110642
X129070Y-110642
X131610Y-110642
X134150Y-110642
X140500Y-110642
X140500Y-113182
X143040Y-110642
X143040Y-113182
X145580Y-110642
X145580Y-113182
X148120Y-110642
X148120Y-113182
X150660Y-110642
X150660Y-113182
X153200Y-110642
X153200Y-113182
X155740Y-110642
X155740Y-113182
X164630Y-54762
X167170Y-54762
T5
X164630Y-62382
X164630Y-64922
X164630Y-67462
X164630Y-70002
X164630Y-72542
X164630Y-75082
X164630Y-77622
X164630Y-80162
X164630Y-82702
X164630Y-85242
X164630Y-87782
X164630Y-90322
X164630Y-92862
X164630Y-95402
X164630Y-97942
X164630Y-100482
X164630Y-103022
X164630Y-105562
X164630Y-108102
X164630Y-110642
X164630Y-113182
X164630Y-115722
X164630Y-118262
X167170Y-62382
X167170Y-64922
X167170Y-67462
X167170Y-70002
X167170Y-72542
X167170Y-75082
X167170Y-77622
X167170Y-80162
X167170Y-82702
X167170Y-85242
X167170Y-87782
X167170Y-90322
X167170Y-92862
X167170Y-95402
X167170Y-97942
X167170Y-100482
X167170Y-103022
X167170Y-105562
X167170Y-108102
X167170Y-110642
X167170Y-113182
X167170Y-115722
X167170Y-118262
X116370Y-62382
X116370Y-64922
X116370Y-67462
X116370Y-70002
X116370Y-72542
X116370Y-75082
X116370Y-77622
X116370Y-80162
X116370Y-82702
X116370Y-85242
X116370Y-87782
X116370Y-90322
X116370Y-92862
X116370Y-95402
X116370Y-97942
X116370Y-100482
X116370Y-103022
X116370Y-105562
X116370Y-108102
X116370Y-110642
X116370Y-113182
X116370Y-115722
X116370Y-118262
X118910Y-62382
X118910Y-64922
X118910Y-67462
X118910Y-70002
X118910Y-72542
X118910Y-75082
X118910Y-77622
X118910Y-80162
X118910Y-82702
X118910Y-85242
X118910Y-87782
X118910Y-90322
X118910Y-92862
X118910Y-95402
X118910Y-97942
X118910Y-100482
X118910Y-103022
X118910Y-105562
X118910Y-108102
X118910Y-110642
X118910Y-113182
X118910Y-115722
X118910Y-118262
T6
X143040Y-122072
X148120Y-122072
X153200Y-122072
X158280Y-122072
T0
M30
